<svg xmlns="http://www.w3.org/2000/svg" xmlns:xlink="http://www.w3.org/1999/xlink" zoomAndPan="magnify" preserveAspectRatio="xMidYMid meet" version="1.0" viewBox="8.22 65.96 162.95 54.72"><defs><g/></defs><g fill="#bdaab6" fill-opacity="1"><g transform="translate(10.029098, 107.47634)"><g><path d="M -1.75 -0.5 L -1.75 -0.75 C -1.75 -0.894531 -1.734375 -1.015625 -1.703125 -1.109375 C -1.679688 -1.203125 -1.59375 -1.296875 -1.4375 -1.390625 C -1.070312 -1.554688 -0.710938 -1.671875 -0.359375 -1.734375 C -0.00390625 -1.796875 0.363281 -1.828125 0.75 -1.828125 C 1.007812 -1.828125 1.28125 -1.816406 1.5625 -1.796875 C 1.851562 -1.785156 2.128906 -1.757812 2.390625 -1.71875 C 2.585938 -1.8125 2.800781 -1.867188 3.03125 -1.890625 C 3.269531 -1.921875 3.5 -1.953125 3.71875 -1.984375 C 3.945312 -2.015625 4.15625 -2.070312 4.34375 -2.15625 C 4.539062 -2.238281 4.703125 -2.390625 4.828125 -2.609375 C 5.253906 -3.335938 5.578125 -4.117188 5.796875 -4.953125 C 6.023438 -5.796875 6.285156 -6.632812 6.578125 -7.46875 C 6.710938 -7.820312 6.84375 -8.164062 6.96875 -8.5 C 7.101562 -8.832031 7.21875 -9.1875 7.3125 -9.5625 C 7.3125 -9.632812 7.332031 -9.796875 7.375 -10.046875 C 7.425781 -10.296875 7.472656 -10.554688 7.515625 -10.828125 C 7.554688 -11.109375 7.601562 -11.375 7.65625 -11.625 C 7.71875 -11.875 7.769531 -12.046875 7.8125 -12.140625 C 7.863281 -12.421875 7.945312 -12.6875 8.0625 -12.9375 C 8.1875 -13.1875 8.304688 -13.429688 8.421875 -13.671875 C 8.546875 -13.910156 8.648438 -14.160156 8.734375 -14.421875 C 8.816406 -14.679688 8.832031 -14.957031 8.78125 -15.25 L 9.671875 -17.703125 C 9.648438 -18.015625 9.703125 -18.328125 9.828125 -18.640625 C 9.960938 -18.953125 10.140625 -19.210938 10.359375 -19.421875 C 11.117188 -21.253906 11.789062 -23.078125 12.375 -24.890625 C 12.957031 -26.710938 13.566406 -28.546875 14.203125 -30.390625 C 14.203125 -30.390625 14.222656 -30.441406 14.265625 -30.546875 C 14.316406 -30.648438 14.367188 -30.765625 14.421875 -30.890625 C 14.472656 -31.023438 14.53125 -31.15625 14.59375 -31.28125 C 14.664062 -31.414062 14.71875 -31.507812 14.75 -31.5625 C 14.75 -31.632812 14.796875 -31.757812 14.890625 -31.9375 C 14.984375 -32.113281 15.050781 -32.222656 15.09375 -32.265625 C 15.09375 -32.335938 15.113281 -32.492188 15.15625 -32.734375 C 15.207031 -32.972656 15.25 -33.113281 15.28125 -33.15625 C 15.28125 -33.164062 15.316406 -33.238281 15.390625 -33.375 C 15.460938 -33.519531 15.519531 -33.613281 15.5625 -33.65625 C 15.675781 -33.78125 15.773438 -34.007812 15.859375 -34.34375 C 15.941406 -34.675781 16.019531 -35.035156 16.09375 -35.421875 C 16.164062 -35.816406 16.21875 -36.191406 16.25 -36.546875 C 16.289062 -36.910156 16.3125 -37.195312 16.3125 -37.40625 C 16.3125 -37.476562 16.300781 -37.582031 16.28125 -37.71875 C 16.257812 -37.851562 16.25 -37.953125 16.25 -38.015625 C 16.144531 -38.015625 15.953125 -38.019531 15.671875 -38.03125 C 15.390625 -38.039062 15.09375 -38.046875 14.78125 -38.046875 C 14.46875 -38.054688 14.175781 -38.070312 13.90625 -38.09375 C 13.632812 -38.113281 13.453125 -38.132812 13.359375 -38.15625 C 13.304688 -38.164062 13.179688 -38.203125 12.984375 -38.265625 C 12.796875 -38.335938 12.585938 -38.40625 12.359375 -38.46875 C 12.140625 -38.53125 11.9375 -38.582031 11.75 -38.625 C 11.5625 -38.675781 11.441406 -38.703125 11.390625 -38.703125 C 11.367188 -38.703125 11.332031 -38.707031 11.28125 -38.71875 C 11.238281 -38.726562 11.203125 -38.734375 11.171875 -38.734375 C 11.128906 -38.734375 11.082031 -38.726562 11.03125 -38.71875 C 10.976562 -38.707031 10.929688 -38.703125 10.890625 -38.703125 L 9.859375 -39.546875 L 9.859375 -39.875 C 9.859375 -40.164062 9.921875 -40.414062 10.046875 -40.625 C 10.179688 -40.84375 10.351562 -41.015625 10.5625 -41.140625 C 10.78125 -41.273438 11.015625 -41.367188 11.265625 -41.421875 C 11.515625 -41.484375 11.757812 -41.515625 12 -41.515625 L 12.46875 -41.515625 C 12.53125 -41.472656 12.632812 -41.425781 12.78125 -41.375 C 12.925781 -41.332031 13.085938 -41.28125 13.265625 -41.21875 C 13.441406 -41.15625 13.601562 -41.09375 13.75 -41.03125 C 13.894531 -40.976562 14 -40.941406 14.0625 -40.921875 C 14.09375 -40.921875 14.171875 -40.910156 14.296875 -40.890625 C 14.429688 -40.878906 14.570312 -40.863281 14.71875 -40.84375 C 14.875 -40.820312 15.023438 -40.804688 15.171875 -40.796875 C 15.316406 -40.796875 15.421875 -40.796875 15.484375 -40.796875 L 19.0625 -40.796875 C 19.09375 -40.796875 19.226562 -40.765625 19.46875 -40.703125 C 19.71875 -40.648438 19.878906 -40.625 19.953125 -40.625 L 20.453125 -40.625 C 20.566406 -40.625 20.789062 -40.628906 21.125 -40.640625 C 21.457031 -40.660156 21.84375 -40.679688 22.28125 -40.703125 C 22.726562 -40.722656 23.195312 -40.742188 23.6875 -40.765625 C 24.175781 -40.796875 24.644531 -40.820312 25.09375 -40.84375 C 25.539062 -40.863281 25.925781 -40.878906 26.25 -40.890625 C 26.570312 -40.910156 26.785156 -40.921875 26.890625 -40.921875 L 27.703125 -40.921875 C 27.960938 -40.921875 28.234375 -40.910156 28.515625 -40.890625 C 28.804688 -40.878906 29.078125 -40.828125 29.328125 -40.734375 C 29.578125 -40.640625 29.785156 -40.5 29.953125 -40.3125 C 30.117188 -40.132812 30.203125 -39.878906 30.203125 -39.546875 C 30.203125 -39.222656 30.148438 -38.96875 30.046875 -38.78125 C 29.941406 -38.601562 29.796875 -38.46875 29.609375 -38.375 C 29.429688 -38.28125 29.222656 -38.21875 28.984375 -38.1875 C 28.753906 -38.164062 28.515625 -38.15625 28.265625 -38.15625 L 26.703125 -38.15625 C 26.660156 -38.15625 26.578125 -38.148438 26.453125 -38.140625 C 26.335938 -38.128906 26.210938 -38.113281 26.078125 -38.09375 C 25.941406 -38.070312 25.816406 -38.050781 25.703125 -38.03125 C 25.585938 -38.019531 25.519531 -38.015625 25.5 -38.015625 L 23.53125 -38.015625 C 23.34375 -38.015625 23.195312 -37.898438 23.09375 -37.671875 C 23 -37.453125 22.914062 -37.28125 22.84375 -37.15625 C 22.414062 -36.039062 22.035156 -34.9375 21.703125 -33.84375 C 21.367188 -32.75 21.015625 -31.65625 20.640625 -30.5625 C 20.378906 -29.769531 20.085938 -29.003906 19.765625 -28.265625 C 19.441406 -27.535156 19.140625 -26.785156 18.859375 -26.015625 C 18.859375 -25.992188 18.847656 -25.945312 18.828125 -25.875 C 18.816406 -25.800781 18.804688 -25.710938 18.796875 -25.609375 C 18.785156 -25.503906 18.769531 -25.410156 18.75 -25.328125 C 18.738281 -25.242188 18.734375 -25.191406 18.734375 -25.171875 C 18.484375 -24.390625 18.203125 -23.632812 17.890625 -22.90625 C 17.578125 -22.175781 17.265625 -21.421875 16.953125 -20.640625 C 16.722656 -19.992188 16.53125 -19.347656 16.375 -18.703125 C 16.21875 -18.066406 16.007812 -17.4375 15.75 -16.8125 C 15.550781 -16.269531 15.34375 -15.75 15.125 -15.25 C 14.914062 -14.75 14.738281 -14.238281 14.59375 -13.71875 C 14.382812 -13.207031 14.226562 -12.6875 14.125 -12.15625 C 14.019531 -11.625 13.878906 -11.09375 13.703125 -10.5625 C 13.609375 -10.300781 13.488281 -10.050781 13.34375 -9.8125 C 13.207031 -9.570312 13.09375 -9.320312 13 -9.0625 C 12.976562 -9 12.953125 -8.898438 12.921875 -8.765625 C 12.898438 -8.628906 12.867188 -8.476562 12.828125 -8.3125 C 12.796875 -8.15625 12.757812 -8.015625 12.71875 -7.890625 C 12.6875 -7.765625 12.671875 -7.691406 12.671875 -7.671875 C 12.554688 -7.273438 12.414062 -6.898438 12.25 -6.546875 C 12.082031 -6.203125 11.925781 -5.851562 11.78125 -5.5 C 11.632812 -5.144531 11.507812 -4.785156 11.40625 -4.421875 C 11.300781 -4.066406 11.25 -3.6875 11.25 -3.28125 L 11.25 -2.828125 C 11.25 -2.722656 11.253906 -2.617188 11.265625 -2.515625 C 11.273438 -2.410156 11.316406 -2.332031 11.390625 -2.28125 C 11.441406 -2.238281 11.53125 -2.195312 11.65625 -2.15625 C 11.789062 -2.125 11.894531 -2.109375 11.96875 -2.109375 C 12.03125 -2.085938 12.117188 -2.066406 12.234375 -2.046875 C 12.359375 -2.035156 12.476562 -2.019531 12.59375 -2 C 12.71875 -1.976562 12.832031 -1.957031 12.9375 -1.9375 C 13.050781 -1.925781 13.128906 -1.921875 13.171875 -1.921875 C 13.191406 -1.921875 13.300781 -1.914062 13.5 -1.90625 C 13.707031 -1.894531 13.941406 -1.890625 14.203125 -1.890625 C 14.472656 -1.890625 14.75 -1.882812 15.03125 -1.875 C 15.3125 -1.863281 15.535156 -1.859375 15.703125 -1.859375 C 15.773438 -1.859375 15.929688 -1.863281 16.171875 -1.875 C 16.410156 -1.882812 16.664062 -1.890625 16.9375 -1.890625 C 17.207031 -1.890625 17.457031 -1.894531 17.6875 -1.90625 C 17.914062 -1.914062 18.078125 -1.921875 18.171875 -1.921875 C 18.359375 -2.015625 18.539062 -2.066406 18.71875 -2.078125 C 18.894531 -2.097656 19.082031 -2.109375 19.28125 -2.109375 L 19.953125 -2.109375 C 20.929688 -2.015625 21.929688 -1.925781 22.953125 -1.84375 C 23.984375 -1.757812 25.003906 -1.71875 26.015625 -1.71875 C 27.015625 -1.71875 27.96875 -1.816406 28.875 -2.015625 C 29.78125 -2.222656 30.675781 -2.515625 31.5625 -2.890625 C 31.601562 -2.941406 31.679688 -3.007812 31.796875 -3.09375 C 31.921875 -3.175781 32.019531 -3.238281 32.09375 -3.28125 C 32.164062 -3.351562 32.289062 -3.460938 32.46875 -3.609375 C 32.644531 -3.753906 32.832031 -3.910156 33.03125 -4.078125 C 33.238281 -4.242188 33.4375 -4.398438 33.625 -4.546875 C 33.8125 -4.703125 33.941406 -4.804688 34.015625 -4.859375 C 34.441406 -5.234375 34.804688 -5.675781 35.109375 -6.1875 C 35.410156 -6.695312 35.738281 -7.191406 36.09375 -7.671875 C 36.113281 -7.703125 36.175781 -7.789062 36.28125 -7.9375 C 36.394531 -8.09375 36.519531 -8.257812 36.65625 -8.4375 C 36.800781 -8.613281 36.929688 -8.773438 37.046875 -8.921875 C 37.171875 -9.066406 37.242188 -9.160156 37.265625 -9.203125 C 37.296875 -9.234375 37.363281 -9.320312 37.46875 -9.46875 C 37.570312 -9.625 37.679688 -9.785156 37.796875 -9.953125 C 37.921875 -10.128906 38.035156 -10.289062 38.140625 -10.4375 C 38.242188 -10.59375 38.3125 -10.6875 38.34375 -10.71875 C 38.414062 -10.851562 38.46875 -10.925781 38.5 -10.9375 C 38.539062 -10.957031 38.644531 -10.96875 38.8125 -10.96875 C 39.113281 -10.96875 39.3125 -10.820312 39.40625 -10.53125 C 39.5 -10.238281 39.546875 -9.953125 39.546875 -9.671875 C 39.546875 -9.242188 39.4375 -8.816406 39.21875 -8.390625 C 39.007812 -7.960938 38.828125 -7.523438 38.671875 -7.078125 C 38.335938 -6.003906 38.039062 -4.921875 37.78125 -3.828125 C 37.53125 -2.734375 37.289062 -1.625 37.0625 -0.5 C 36.957031 -0.28125 36.796875 -0.113281 36.578125 0 C 36.367188 0.125 36.144531 0.1875 35.90625 0.1875 L 18.171875 0.1875 C 17.816406 0.132812 17.507812 0.0976562 17.25 0.078125 C 16.988281 0.0664062 16.734375 0.0507812 16.484375 0.03125 C 16.234375 0.0078125 15.984375 0 15.734375 0 C 15.484375 0 15.191406 0 14.859375 0 C 14.359375 0 13.863281 0.03125 13.375 0.09375 C 12.882812 0.15625 12.375 0.1875 11.84375 0.1875 C 11.425781 0.1875 11 0.125 10.5625 0 C 10.132812 -0.125 9.679688 -0.1875 9.203125 -0.1875 L 8.609375 -0.1875 C 8.128906 -0.1875 7.660156 -0.164062 7.203125 -0.125 C 6.753906 -0.0820312 6.316406 0.0195312 5.890625 0.1875 L 2.1875 0.1875 C 2.113281 0.1875 1.976562 0.191406 1.78125 0.203125 C 1.59375 0.210938 1.390625 0.226562 1.171875 0.25 C 0.960938 0.269531 0.757812 0.285156 0.5625 0.296875 C 0.375 0.316406 0.242188 0.335938 0.171875 0.359375 C 0.148438 0.359375 0.117188 0.367188 0.078125 0.390625 C 0.046875 0.410156 0.0078125 0.425781 -0.03125 0.4375 C -0.0820312 0.457031 -0.128906 0.476562 -0.171875 0.5 L -0.5 0.5 C -0.738281 0.5 -0.910156 0.484375 -1.015625 0.453125 C -1.128906 0.429688 -1.316406 0.34375 -1.578125 0.1875 C -1.734375 0.101562 -1.8125 -0.00390625 -1.8125 -0.140625 C -1.8125 -0.210938 -1.800781 -0.28125 -1.78125 -0.34375 C -1.757812 -0.40625 -1.75 -0.457031 -1.75 -0.5 Z M -1.75 -0.5 "/></g></g></g><g fill="#bdaab6" fill-opacity="1"><g transform="translate(51.405248, 107.47634)"><g><path d="M -5.96875 11.203125 C -5.96875 10.566406 -5.789062 10.015625 -5.4375 9.546875 C -5.09375 9.085938 -4.554688 8.859375 -3.828125 8.859375 C -3.585938 8.859375 -3.347656 8.894531 -3.109375 8.96875 C -2.867188 9.050781 -2.632812 9.132812 -2.40625 9.21875 C -2.175781 9.300781 -1.941406 9.378906 -1.703125 9.453125 C -1.472656 9.523438 -1.226562 9.5625 -0.96875 9.5625 L -0.6875 9.5625 C -0.613281 9.5625 -0.539062 9.550781 -0.46875 9.53125 C -0.414062 9.53125 -0.3125 9.472656 -0.15625 9.359375 C -0.0078125 9.253906 0.0664062 9.203125 0.078125 9.203125 C 0.304688 9.066406 0.503906 8.9375 0.671875 8.8125 C 0.835938 8.695312 0.992188 8.570312 1.140625 8.4375 C 1.285156 8.3125 1.425781 8.171875 1.5625 8.015625 C 1.707031 7.859375 1.851562 7.675781 2 7.46875 C 2 7.4375 2.019531 7.363281 2.0625 7.25 C 2.113281 7.132812 2.15625 7.078125 2.1875 7.078125 C 2.226562 7.066406 2.304688 7.007812 2.421875 6.90625 C 2.546875 6.800781 2.671875 6.691406 2.796875 6.578125 C 2.929688 6.472656 3.054688 6.367188 3.171875 6.265625 C 3.296875 6.160156 3.378906 6.09375 3.421875 6.0625 C 3.453125 6.039062 3.5 5.957031 3.5625 5.8125 C 3.632812 5.675781 3.707031 5.53125 3.78125 5.375 C 3.851562 5.21875 3.925781 5.066406 4 4.921875 C 4.070312 4.773438 4.128906 4.671875 4.171875 4.609375 L 4.453125 4.328125 C 4.628906 4.085938 4.742188 3.828125 4.796875 3.546875 C 4.859375 3.273438 4.972656 3.007812 5.140625 2.75 C 5.265625 2.582031 5.390625 2.453125 5.515625 2.359375 C 5.640625 2.265625 5.742188 2.175781 5.828125 2.09375 C 5.921875 2.007812 6.007812 1.914062 6.09375 1.8125 C 6.175781 1.71875 6.253906 1.578125 6.328125 1.390625 C 6.410156 1.242188 6.492188 1.0625 6.578125 0.84375 C 6.660156 0.632812 6.738281 0.410156 6.8125 0.171875 C 6.882812 -0.0546875 6.941406 -0.28125 6.984375 -0.5 C 7.035156 -0.71875 7.066406 -0.910156 7.078125 -1.078125 C 7.078125 -1.097656 7.070312 -1.171875 7.0625 -1.296875 C 7.0625 -1.429688 7.0625 -1.554688 7.0625 -1.671875 C 7.0625 -1.722656 7.0625 -1.773438 7.0625 -1.828125 C 7.0625 -1.890625 7.066406 -1.921875 7.078125 -1.921875 C 7.078125 -1.972656 7.097656 -2.082031 7.140625 -2.25 C 7.191406 -2.414062 7.25 -2.597656 7.3125 -2.796875 C 7.382812 -3.003906 7.441406 -3.191406 7.484375 -3.359375 C 7.535156 -3.523438 7.5625 -3.640625 7.5625 -3.703125 L 7.5625 -5.421875 C 7.59375 -5.492188 7.628906 -5.59375 7.671875 -5.71875 C 7.722656 -5.851562 7.75 -5.9375 7.75 -5.96875 L 7.703125 -9.109375 L 7.703125 -9.609375 C 7.679688 -9.796875 7.644531 -10.082031 7.59375 -10.46875 C 7.550781 -10.863281 7.5 -11.304688 7.4375 -11.796875 C 7.382812 -12.285156 7.332031 -12.800781 7.28125 -13.34375 C 7.226562 -13.894531 7.175781 -14.414062 7.125 -14.90625 C 7.082031 -15.394531 7.039062 -15.832031 7 -16.21875 C 6.96875 -16.613281 6.941406 -16.90625 6.921875 -17.09375 C 6.898438 -17.269531 6.882812 -17.535156 6.875 -17.890625 C 6.863281 -18.242188 6.816406 -18.59375 6.734375 -18.9375 C 6.648438 -19.28125 6.523438 -19.578125 6.359375 -19.828125 C 6.191406 -20.078125 5.953125 -20.203125 5.640625 -20.203125 C 5.421875 -20.203125 5.226562 -20.164062 5.0625 -20.09375 C 4.90625 -20.019531 4.765625 -19.925781 4.640625 -19.8125 C 4.523438 -19.695312 4.414062 -19.570312 4.3125 -19.4375 C 4.21875 -19.300781 4.101562 -19.164062 3.96875 -19.03125 C 3.894531 -18.957031 3.789062 -18.851562 3.65625 -18.71875 C 3.53125 -18.59375 3.398438 -18.460938 3.265625 -18.328125 C 3.140625 -18.203125 3.019531 -18.082031 2.90625 -17.96875 C 2.800781 -17.863281 2.726562 -17.800781 2.6875 -17.78125 C 2.675781 -17.757812 2.628906 -17.722656 2.546875 -17.671875 C 2.472656 -17.628906 2.390625 -17.582031 2.296875 -17.53125 C 2.210938 -17.476562 2.125 -17.425781 2.03125 -17.375 C 1.9375 -17.332031 1.867188 -17.300781 1.828125 -17.28125 L 1.78125 -17.28125 C 1.632812 -17.28125 1.550781 -17.335938 1.53125 -17.453125 C 1.507812 -17.578125 1.5 -17.6875 1.5 -17.78125 C 1.5 -18.019531 1.570312 -18.328125 1.71875 -18.703125 C 1.863281 -19.085938 2.054688 -19.5 2.296875 -19.9375 C 2.546875 -20.375 2.828125 -20.820312 3.140625 -21.28125 C 3.453125 -21.75 3.757812 -22.1875 4.0625 -22.59375 C 4.375 -23 4.671875 -23.359375 4.953125 -23.671875 C 5.242188 -23.984375 5.492188 -24.21875 5.703125 -24.375 C 5.734375 -24.40625 5.796875 -24.453125 5.890625 -24.515625 C 5.984375 -24.585938 6.082031 -24.664062 6.1875 -24.75 C 6.300781 -24.832031 6.40625 -24.90625 6.5 -24.96875 C 6.59375 -25.03125 6.664062 -25.082031 6.71875 -25.125 C 6.875 -25.195312 6.988281 -25.234375 7.0625 -25.234375 C 7.132812 -25.242188 7.207031 -25.25 7.28125 -25.25 L 7.5 -25.25 C 7.550781 -25.25 7.613281 -25.25 7.6875 -25.25 C 7.769531 -25.25 7.859375 -25.269531 7.953125 -25.3125 C 7.960938 -25.3125 8.070312 -25.335938 8.28125 -25.390625 C 8.488281 -25.453125 8.609375 -25.484375 8.640625 -25.484375 C 8.878906 -25.441406 9.085938 -25.34375 9.265625 -25.1875 C 9.441406 -25.03125 9.585938 -24.847656 9.703125 -24.640625 C 9.828125 -24.441406 9.929688 -24.226562 10.015625 -24 C 10.097656 -23.78125 10.164062 -23.578125 10.21875 -23.390625 C 10.238281 -23.242188 10.273438 -23.054688 10.328125 -22.828125 C 10.390625 -22.609375 10.445312 -22.382812 10.5 -22.15625 C 10.5625 -21.925781 10.609375 -21.722656 10.640625 -21.546875 C 10.679688 -21.367188 10.703125 -21.265625 10.703125 -21.234375 L 10.703125 -20.0625 C 10.703125 -19.925781 10.707031 -19.738281 10.71875 -19.5 C 10.738281 -19.257812 10.757812 -19.003906 10.78125 -18.734375 C 10.800781 -18.472656 10.816406 -18.234375 10.828125 -18.015625 C 10.847656 -17.804688 10.859375 -17.664062 10.859375 -17.59375 C 10.859375 -17.550781 10.878906 -17.460938 10.921875 -17.328125 C 10.972656 -17.203125 11.019531 -17.125 11.0625 -17.09375 C 11.113281 -16.519531 11.148438 -15.992188 11.171875 -15.515625 C 11.191406 -15.046875 11.207031 -14.582031 11.21875 -14.125 C 11.238281 -13.675781 11.25 -13.210938 11.25 -12.734375 C 11.25 -12.265625 11.25 -11.753906 11.25 -11.203125 L 11.25 -10.03125 C 11.25 -9.570312 11.222656 -9.128906 11.171875 -8.703125 C 11.128906 -8.273438 11.023438 -7.816406 10.859375 -7.328125 L 11.0625 -7.203125 C 11.09375 -7.210938 11.148438 -7.257812 11.234375 -7.34375 C 11.316406 -7.425781 11.390625 -7.476562 11.453125 -7.5 C 11.460938 -7.550781 11.5 -7.640625 11.5625 -7.765625 C 11.632812 -7.898438 11.707031 -8.039062 11.78125 -8.1875 C 11.851562 -8.34375 11.921875 -8.488281 11.984375 -8.625 C 12.054688 -8.769531 12.109375 -8.867188 12.140625 -8.921875 C 12.453125 -9.679688 12.722656 -10.429688 12.953125 -11.171875 C 13.191406 -11.910156 13.445312 -12.671875 13.71875 -13.453125 C 13.71875 -13.460938 13.734375 -13.5 13.765625 -13.5625 C 13.796875 -13.632812 13.828125 -13.707031 13.859375 -13.78125 C 13.898438 -13.851562 13.929688 -13.925781 13.953125 -14 C 13.984375 -14.070312 14 -14.117188 14 -14.140625 C 14.019531 -14.203125 14.050781 -14.351562 14.09375 -14.59375 C 14.144531 -14.832031 14.203125 -15.082031 14.265625 -15.34375 C 14.328125 -15.613281 14.382812 -15.867188 14.4375 -16.109375 C 14.5 -16.359375 14.539062 -16.507812 14.5625 -16.5625 C 14.65625 -16.96875 14.765625 -17.382812 14.890625 -17.8125 C 15.023438 -18.238281 15.09375 -18.664062 15.09375 -19.09375 C 15.09375 -19.570312 15.054688 -20.050781 14.984375 -20.53125 C 14.921875 -21.007812 14.890625 -21.507812 14.890625 -22.03125 L 14.890625 -23.703125 C 14.960938 -23.941406 15.085938 -24.128906 15.265625 -24.265625 C 15.441406 -24.410156 15.640625 -24.519531 15.859375 -24.59375 C 16.085938 -24.664062 16.320312 -24.707031 16.5625 -24.71875 C 16.800781 -24.726562 17.039062 -24.734375 17.28125 -24.734375 L 17.3125 -24.734375 C 17.363281 -24.734375 17.4375 -24.710938 17.53125 -24.671875 C 17.625 -24.640625 17.722656 -24.601562 17.828125 -24.5625 C 17.941406 -24.519531 18.050781 -24.476562 18.15625 -24.4375 C 18.257812 -24.40625 18.335938 -24.382812 18.390625 -24.375 C 18.429688 -24.332031 18.484375 -24.25 18.546875 -24.125 C 18.609375 -24.007812 18.675781 -23.875 18.75 -23.71875 C 18.820312 -23.570312 18.882812 -23.429688 18.9375 -23.296875 C 19 -23.160156 19.03125 -23.0625 19.03125 -23 L 19.03125 -22.171875 C 19.03125 -21.765625 19.015625 -21.40625 18.984375 -21.09375 C 18.960938 -20.789062 18.914062 -20.503906 18.84375 -20.234375 C 18.78125 -19.972656 18.691406 -19.703125 18.578125 -19.421875 C 18.472656 -19.140625 18.347656 -18.828125 18.203125 -18.484375 C 18.085938 -18.160156 17.976562 -17.835938 17.875 -17.515625 C 17.78125 -17.191406 17.65625 -16.875 17.5 -16.5625 C 17.46875 -16.488281 17.382812 -16.34375 17.25 -16.125 C 17.125 -15.914062 17.023438 -15.785156 16.953125 -15.734375 C 16.953125 -15.691406 16.925781 -15.632812 16.875 -15.5625 C 16.832031 -15.488281 16.773438 -15.410156 16.703125 -15.328125 C 16.640625 -15.242188 16.585938 -15.164062 16.546875 -15.09375 C 16.503906 -15.03125 16.484375 -14.992188 16.484375 -14.984375 C 16.460938 -14.984375 16.441406 -14.941406 16.421875 -14.859375 C 16.398438 -14.773438 16.378906 -14.679688 16.359375 -14.578125 C 16.347656 -14.472656 16.332031 -14.378906 16.3125 -14.296875 C 16.289062 -14.210938 16.28125 -14.160156 16.28125 -14.140625 C 15.96875 -13.109375 15.582031 -12.101562 15.125 -11.125 C 14.675781 -10.15625 14.207031 -9.171875 13.71875 -8.171875 C 13.519531 -7.835938 13.300781 -7.519531 13.0625 -7.21875 C 12.820312 -6.925781 12.625 -6.625 12.46875 -6.3125 C 12.269531 -5.957031 12.109375 -5.582031 11.984375 -5.1875 C 11.867188 -4.800781 11.738281 -4.40625 11.59375 -4 C 11.457031 -3.71875 11.285156 -3.425781 11.078125 -3.125 C 10.878906 -2.832031 10.71875 -2.550781 10.59375 -2.28125 C 10.507812 -2.164062 10.378906 -1.945312 10.203125 -1.625 C 10.035156 -1.300781 9.859375 -0.945312 9.671875 -0.5625 C 9.484375 -0.1875 9.3125 0.171875 9.15625 0.515625 C 9 0.859375 8.894531 1.09375 8.84375 1.21875 C 8.632812 1.332031 8.46875 1.476562 8.34375 1.65625 C 8.226562 1.832031 8.125 2.019531 8.03125 2.21875 C 7.9375 2.425781 7.84375 2.632812 7.75 2.84375 C 7.65625 3.0625 7.546875 3.265625 7.421875 3.453125 C 7.378906 3.484375 7.289062 3.566406 7.15625 3.703125 C 7.019531 3.847656 6.941406 3.9375 6.921875 3.96875 C 6.898438 3.96875 6.851562 4.019531 6.78125 4.125 C 6.707031 4.226562 6.628906 4.34375 6.546875 4.46875 C 6.460938 4.601562 6.382812 4.71875 6.3125 4.8125 C 6.238281 4.914062 6.191406 4.976562 6.171875 5 C 6.109375 5.09375 5.988281 5.25 5.8125 5.46875 C 5.644531 5.695312 5.539062 5.835938 5.5 5.890625 C 4.945312 6.503906 4.398438 7.128906 3.859375 7.765625 C 3.328125 8.398438 2.769531 9.007812 2.1875 9.59375 C 1.601562 10.175781 0.976562 10.71875 0.3125 11.21875 C -0.34375 11.71875 -1.054688 12.132812 -1.828125 12.46875 C -2.109375 12.582031 -2.398438 12.734375 -2.703125 12.921875 C -3.015625 13.109375 -3.328125 13.203125 -3.640625 13.203125 C -3.921875 13.203125 -4.195312 13.15625 -4.46875 13.0625 C -4.75 12.96875 -5 12.835938 -5.21875 12.671875 C -5.445312 12.503906 -5.628906 12.296875 -5.765625 12.046875 C -5.898438 11.796875 -5.96875 11.515625 -5.96875 11.203125 Z M -5.96875 11.203125 "/></g></g></g><g fill="#bdaab6" fill-opacity="1"><g transform="translate(70.828977, 107.47634)"><g><path d="M 8.25 -5.75 C 8.25 -6.226562 8.296875 -6.671875 8.390625 -7.078125 C 8.484375 -7.492188 8.566406 -7.929688 8.640625 -8.390625 L 8.640625 -8.71875 C 8.640625 -8.757812 8.691406 -8.828125 8.796875 -8.921875 C 8.898438 -9.015625 8.953125 -9.078125 8.953125 -9.109375 C 9.171875 -9.554688 9.332031 -10.039062 9.4375 -10.5625 C 9.550781 -11.09375 9.6875 -11.601562 9.84375 -12.09375 C 9.875 -12.21875 9.945312 -12.347656 10.0625 -12.484375 C 10.1875 -12.628906 10.285156 -12.773438 10.359375 -12.921875 C 10.378906 -12.953125 10.421875 -13.050781 10.484375 -13.21875 C 10.554688 -13.382812 10.628906 -13.570312 10.703125 -13.78125 C 10.773438 -13.988281 10.84375 -14.175781 10.90625 -14.34375 C 10.96875 -14.519531 11 -14.640625 11 -14.703125 C 11.132812 -15.015625 11.316406 -15.34375 11.546875 -15.6875 C 11.773438 -16.03125 12 -16.375 12.21875 -16.71875 C 12.445312 -17.0625 12.640625 -17.398438 12.796875 -17.734375 C 12.953125 -18.078125 13.03125 -18.414062 13.03125 -18.75 C 13.03125 -19.070312 12.992188 -19.320312 12.921875 -19.5 C 12.847656 -19.6875 12.691406 -19.875 12.453125 -20.0625 C 12.359375 -20.082031 12.203125 -20.097656 11.984375 -20.109375 C 11.773438 -20.128906 11.550781 -20.144531 11.3125 -20.15625 C 11.070312 -20.164062 10.835938 -20.179688 10.609375 -20.203125 C 10.390625 -20.222656 10.242188 -20.238281 10.171875 -20.25 L 10.03125 -20.25 C 9.988281 -20.21875 9.894531 -20.1875 9.75 -20.15625 C 9.601562 -20.132812 9.507812 -20.101562 9.46875 -20.0625 L 9.34375 -20.0625 C 9.300781 -20.082031 9.238281 -20.097656 9.15625 -20.109375 C 9.070312 -20.128906 8.976562 -20.144531 8.875 -20.15625 C 8.769531 -20.164062 8.675781 -20.179688 8.59375 -20.203125 C 8.507812 -20.222656 8.460938 -20.238281 8.453125 -20.25 L 8.109375 -20.25 C 7.628906 -20.164062 7.148438 -20.128906 6.671875 -20.140625 C 6.191406 -20.160156 5.726562 -20.078125 5.28125 -19.890625 C 5.09375 -19.816406 4.863281 -19.675781 4.59375 -19.46875 C 4.332031 -19.269531 4.078125 -19.039062 3.828125 -18.78125 C 3.585938 -18.519531 3.382812 -18.25 3.21875 -17.96875 C 3.050781 -17.695312 2.96875 -17.453125 2.96875 -17.234375 C 2.96875 -16.972656 3.007812 -16.78125 3.09375 -16.65625 C 3.175781 -16.539062 3.273438 -16.453125 3.390625 -16.390625 C 3.515625 -16.335938 3.65625 -16.289062 3.8125 -16.25 C 3.976562 -16.21875 4.132812 -16.15625 4.28125 -16.0625 C 4.300781 -16.039062 4.347656 -16 4.421875 -15.9375 C 4.492188 -15.875 4.578125 -15.800781 4.671875 -15.71875 C 4.765625 -15.632812 4.851562 -15.546875 4.9375 -15.453125 C 5.019531 -15.359375 5.085938 -15.285156 5.140625 -15.234375 C 5.160156 -15.171875 5.21875 -15.070312 5.3125 -14.9375 C 5.40625 -14.8125 5.46875 -14.734375 5.5 -14.703125 L 5.5 -14.5625 C 5.5 -14.25 5.441406 -13.929688 5.328125 -13.609375 C 5.222656 -13.296875 5.066406 -13.007812 4.859375 -12.75 C 4.660156 -12.488281 4.414062 -12.273438 4.125 -12.109375 C 3.84375 -11.941406 3.523438 -11.859375 3.171875 -11.859375 C 2.679688 -11.859375 2.3125 -11.960938 2.0625 -12.171875 C 1.8125 -12.390625 1.628906 -12.664062 1.515625 -13 C 1.410156 -13.332031 1.347656 -13.691406 1.328125 -14.078125 C 1.316406 -14.472656 1.3125 -14.859375 1.3125 -15.234375 C 1.3125 -15.765625 1.4375 -16.296875 1.6875 -16.828125 C 1.9375 -17.367188 2.171875 -17.875 2.390625 -18.34375 C 2.390625 -18.351562 2.398438 -18.390625 2.421875 -18.453125 C 2.453125 -18.523438 2.484375 -18.597656 2.515625 -18.671875 C 2.554688 -18.742188 2.59375 -18.816406 2.625 -18.890625 C 2.65625 -18.960938 2.671875 -19.007812 2.671875 -19.03125 C 2.773438 -19.34375 2.976562 -19.640625 3.28125 -19.921875 C 3.59375 -20.203125 3.804688 -20.425781 3.921875 -20.59375 C 3.941406 -20.613281 3.972656 -20.671875 4.015625 -20.765625 C 4.054688 -20.867188 4.101562 -20.984375 4.15625 -21.109375 C 4.21875 -21.242188 4.273438 -21.363281 4.328125 -21.46875 C 4.390625 -21.570312 4.421875 -21.640625 4.421875 -21.671875 C 4.441406 -21.691406 4.492188 -21.75 4.578125 -21.84375 C 4.660156 -21.9375 4.757812 -22.035156 4.875 -22.140625 C 5 -22.253906 5.113281 -22.363281 5.21875 -22.46875 C 5.332031 -22.582031 5.425781 -22.671875 5.5 -22.734375 C 5.925781 -23.097656 6.320312 -23.390625 6.6875 -23.609375 C 7.0625 -23.835938 7.421875 -24.003906 7.765625 -24.109375 C 8.109375 -24.222656 8.445312 -24.296875 8.78125 -24.328125 C 9.113281 -24.359375 9.46875 -24.375 9.84375 -24.375 L 11.0625 -24.375 C 11.300781 -24.375 11.550781 -24.375 11.8125 -24.375 C 12.082031 -24.375 12.359375 -24.390625 12.640625 -24.421875 C 12.679688 -24.421875 12.769531 -24.445312 12.90625 -24.5 C 13.039062 -24.5625 13.128906 -24.609375 13.171875 -24.640625 L 15.390625 -24.640625 C 15.429688 -24.628906 15.515625 -24.617188 15.640625 -24.609375 C 15.773438 -24.597656 15.914062 -24.570312 16.0625 -24.53125 C 16.207031 -24.5 16.332031 -24.441406 16.4375 -24.359375 C 16.550781 -24.285156 16.609375 -24.195312 16.609375 -24.09375 C 16.609375 -23.644531 16.476562 -23.191406 16.21875 -22.734375 C 15.96875 -22.285156 15.757812 -21.875 15.59375 -21.5 C 15.550781 -21.46875 15.515625 -21.378906 15.484375 -21.234375 C 15.460938 -21.097656 15.429688 -21.003906 15.390625 -20.953125 C 15.390625 -20.910156 15.363281 -20.796875 15.3125 -20.609375 C 15.269531 -20.429688 15.222656 -20.226562 15.171875 -20 C 15.117188 -19.78125 15.066406 -19.578125 15.015625 -19.390625 C 14.972656 -19.203125 14.941406 -19.082031 14.921875 -19.03125 C 14.898438 -19.007812 14.832031 -18.929688 14.71875 -18.796875 C 14.613281 -18.660156 14.5625 -18.570312 14.5625 -18.53125 C 14.300781 -17.914062 14.132812 -17.273438 14.0625 -16.609375 C 14 -15.941406 13.867188 -15.304688 13.671875 -14.703125 C 13.628906 -14.679688 13.554688 -14.59375 13.453125 -14.4375 C 13.359375 -14.28125 13.3125 -14.179688 13.3125 -14.140625 C 13.195312 -13.859375 13.066406 -13.492188 12.921875 -13.046875 C 12.773438 -12.609375 12.632812 -12.148438 12.5 -11.671875 C 12.375 -11.191406 12.257812 -10.722656 12.15625 -10.265625 C 12.050781 -9.816406 11.984375 -9.429688 11.953125 -9.109375 L 11.953125 -8.390625 C 11.953125 -8.367188 11.957031 -8.304688 11.96875 -8.203125 C 11.988281 -8.109375 12.003906 -8 12.015625 -7.875 C 12.023438 -7.757812 12.039062 -7.648438 12.0625 -7.546875 C 12.082031 -7.441406 12.09375 -7.367188 12.09375 -7.328125 C 12.101562 -7.316406 12.117188 -7.269531 12.140625 -7.1875 C 12.160156 -7.101562 12.175781 -7.007812 12.1875 -6.90625 C 12.207031 -6.800781 12.226562 -6.707031 12.25 -6.625 C 12.269531 -6.539062 12.28125 -6.5 12.28125 -6.5 C 12.300781 -6.3125 12.359375 -6.144531 12.453125 -6 C 12.554688 -5.851562 12.675781 -5.710938 12.8125 -5.578125 C 12.957031 -5.453125 13.109375 -5.332031 13.265625 -5.21875 C 13.421875 -5.113281 13.554688 -5.003906 13.671875 -4.890625 C 13.703125 -4.816406 13.75 -4.742188 13.8125 -4.671875 C 13.914062 -4.523438 13.976562 -4.453125 14 -4.453125 C 14.0625 -4.367188 14.148438 -4.285156 14.265625 -4.203125 C 14.390625 -4.117188 14.523438 -4.039062 14.671875 -3.96875 C 14.816406 -3.894531 14.953125 -3.832031 15.078125 -3.78125 C 15.210938 -3.726562 15.316406 -3.703125 15.390625 -3.703125 C 15.785156 -3.703125 16.195312 -3.769531 16.625 -3.90625 C 17.0625 -4.039062 17.488281 -4.21875 17.90625 -4.4375 C 18.320312 -4.664062 18.71875 -4.910156 19.09375 -5.171875 C 19.476562 -5.441406 19.820312 -5.707031 20.125 -5.96875 C 20.320312 -6.101562 20.488281 -6.207031 20.625 -6.28125 C 20.769531 -6.351562 20.890625 -6.414062 20.984375 -6.46875 C 21.085938 -6.53125 21.175781 -6.59375 21.25 -6.65625 C 21.332031 -6.71875 21.414062 -6.804688 21.5 -6.921875 C 21.582031 -7.023438 21.691406 -7.148438 21.828125 -7.296875 C 21.960938 -7.453125 22.09375 -7.597656 22.21875 -7.734375 C 22.351562 -7.878906 22.46875 -8 22.5625 -8.09375 C 22.65625 -8.195312 22.710938 -8.25 22.734375 -8.25 C 22.742188 -8.269531 22.769531 -8.328125 22.8125 -8.421875 C 22.863281 -8.515625 22.921875 -8.613281 22.984375 -8.71875 C 23.054688 -8.832031 23.117188 -8.941406 23.171875 -9.046875 C 23.222656 -9.148438 23.257812 -9.21875 23.28125 -9.25 C 23.28125 -9.289062 23.328125 -9.351562 23.421875 -9.4375 C 23.515625 -9.519531 23.5625 -9.578125 23.5625 -9.609375 C 23.851562 -9.960938 24.070312 -10.316406 24.21875 -10.671875 C 24.375 -11.023438 24.488281 -11.390625 24.5625 -11.765625 C 24.632812 -12.148438 24.679688 -12.535156 24.703125 -12.921875 C 24.734375 -13.304688 24.78125 -13.710938 24.84375 -14.140625 C 24.84375 -14.179688 24.863281 -14.25 24.90625 -14.34375 C 24.957031 -14.4375 24.988281 -14.488281 25 -14.5 L 25 -15.25 C 25 -15.675781 24.945312 -16.066406 24.84375 -16.421875 C 24.75 -16.773438 24.609375 -17.101562 24.421875 -17.40625 C 24.234375 -17.707031 24.023438 -18.003906 23.796875 -18.296875 C 23.566406 -18.597656 23.320312 -18.910156 23.0625 -19.234375 C 23.0625 -19.265625 23.015625 -19.347656 22.921875 -19.484375 C 22.828125 -19.628906 22.765625 -19.71875 22.734375 -19.75 C 22.691406 -19.75 22.625 -19.769531 22.53125 -19.8125 C 22.4375 -19.863281 22.382812 -19.890625 22.375 -19.890625 C 22.1875 -20.023438 22.054688 -20.160156 21.984375 -20.296875 C 21.910156 -20.429688 21.859375 -20.578125 21.828125 -20.734375 C 21.796875 -20.898438 21.769531 -21.066406 21.75 -21.234375 C 21.738281 -21.398438 21.703125 -21.59375 21.640625 -21.8125 C 21.640625 -21.851562 21.625 -21.914062 21.59375 -22 C 21.570312 -22.09375 21.539062 -22.191406 21.5 -22.296875 C 21.46875 -22.398438 21.4375 -22.492188 21.40625 -22.578125 C 21.382812 -22.660156 21.375 -22.710938 21.375 -22.734375 C 21.332031 -22.972656 21.363281 -23.222656 21.46875 -23.484375 C 21.582031 -23.753906 21.738281 -24 21.9375 -24.21875 C 22.144531 -24.445312 22.378906 -24.628906 22.640625 -24.765625 C 22.898438 -24.910156 23.160156 -24.984375 23.421875 -24.984375 C 23.804688 -24.984375 24.148438 -24.878906 24.453125 -24.671875 C 24.765625 -24.472656 25.023438 -24.210938 25.234375 -23.890625 C 25.453125 -23.578125 25.625 -23.234375 25.75 -22.859375 C 25.882812 -22.492188 25.976562 -22.144531 26.03125 -21.8125 C 26.050781 -21.695312 26.082031 -21.488281 26.125 -21.1875 C 26.175781 -20.882812 26.21875 -20.566406 26.25 -20.234375 C 26.289062 -19.898438 26.320312 -19.582031 26.34375 -19.28125 C 26.375 -18.988281 26.398438 -18.785156 26.421875 -18.671875 L 26.421875 -15.359375 C 26.390625 -15.328125 26.347656 -15.242188 26.296875 -15.109375 C 26.253906 -14.984375 26.210938 -14.894531 26.171875 -14.84375 C 26.171875 -14.800781 26.164062 -14.660156 26.15625 -14.421875 C 26.144531 -14.179688 26.128906 -13.921875 26.109375 -13.640625 C 26.097656 -13.359375 26.085938 -13.097656 26.078125 -12.859375 C 26.066406 -12.617188 26.050781 -12.472656 26.03125 -12.421875 C 26.03125 -12.378906 26.007812 -12.296875 25.96875 -12.171875 C 25.9375 -12.054688 25.894531 -11.929688 25.84375 -11.796875 C 25.800781 -11.660156 25.753906 -11.53125 25.703125 -11.40625 C 25.660156 -11.28125 25.632812 -11.203125 25.625 -11.171875 C 25.507812 -10.859375 25.398438 -10.523438 25.296875 -10.171875 C 25.191406 -9.816406 25.09375 -9.460938 25 -9.109375 C 24.988281 -9.054688 24.941406 -8.941406 24.859375 -8.765625 C 24.773438 -8.585938 24.679688 -8.398438 24.578125 -8.203125 C 24.472656 -8.015625 24.378906 -7.835938 24.296875 -7.671875 C 24.210938 -7.503906 24.15625 -7.390625 24.125 -7.328125 C 24.101562 -7.296875 24.046875 -7.191406 23.953125 -7.015625 C 23.859375 -6.835938 23.789062 -6.722656 23.75 -6.671875 C 23.75 -6.648438 23.738281 -6.601562 23.71875 -6.53125 C 23.707031 -6.457031 23.6875 -6.382812 23.65625 -6.3125 C 23.632812 -6.238281 23.601562 -6.164062 23.5625 -6.09375 C 23.519531 -6.03125 23.492188 -5.988281 23.484375 -5.96875 C 23.460938 -5.9375 23.414062 -5.875 23.34375 -5.78125 C 23.269531 -5.6875 23.191406 -5.59375 23.109375 -5.5 C 23.023438 -5.40625 22.941406 -5.316406 22.859375 -5.234375 C 22.785156 -5.148438 22.742188 -5.097656 22.734375 -5.078125 C 21.953125 -4.210938 21.164062 -3.335938 20.375 -2.453125 C 19.59375 -1.578125 18.703125 -0.832031 17.703125 -0.21875 C 17.109375 0.132812 16.414062 0.375 15.625 0.5 C 14.84375 0.625 14.125 0.734375 13.46875 0.828125 L 12.890625 0.828125 C 12.691406 0.828125 12.523438 0.796875 12.390625 0.734375 C 12.265625 0.671875 12.117188 0.582031 11.953125 0.46875 C 11.648438 0.269531 11.320312 0.0703125 10.96875 -0.125 C 10.625 -0.332031 10.285156 -0.554688 9.953125 -0.796875 C 9.628906 -1.046875 9.347656 -1.320312 9.109375 -1.625 C 8.867188 -1.925781 8.710938 -2.273438 8.640625 -2.671875 C 8.609375 -2.773438 8.570312 -2.929688 8.53125 -3.140625 C 8.488281 -3.359375 8.441406 -3.578125 8.390625 -3.796875 C 8.347656 -4.023438 8.3125 -4.226562 8.28125 -4.40625 C 8.257812 -4.582031 8.25 -4.6875 8.25 -4.71875 Z M 8.25 -5.75 "/></g></g></g><g fill="#bdaab6" fill-opacity="1"><g transform="translate(99.172608, 107.47634)"><g><path d="M 7.578125 -14.984375 C 7.578125 -14.734375 7.695312 -14.539062 7.9375 -14.40625 C 8.1875 -14.269531 8.410156 -14.203125 8.609375 -14.203125 C 9.265625 -14.203125 9.828125 -14.351562 10.296875 -14.65625 C 10.765625 -14.957031 11.269531 -15.269531 11.8125 -15.59375 C 11.957031 -15.71875 12.128906 -15.789062 12.328125 -15.8125 C 12.535156 -15.84375 12.707031 -15.941406 12.84375 -16.109375 C 12.851562 -16.148438 12.898438 -16.226562 12.984375 -16.34375 C 13.066406 -16.46875 13.160156 -16.597656 13.265625 -16.734375 C 13.367188 -16.878906 13.460938 -17.003906 13.546875 -17.109375 C 13.628906 -17.222656 13.679688 -17.289062 13.703125 -17.3125 C 13.734375 -17.363281 13.804688 -17.457031 13.921875 -17.59375 C 14.046875 -17.738281 14.171875 -17.890625 14.296875 -18.046875 C 14.429688 -18.203125 14.554688 -18.34375 14.671875 -18.46875 C 14.796875 -18.601562 14.878906 -18.691406 14.921875 -18.734375 C 15.066406 -18.929688 15.15625 -19.160156 15.1875 -19.421875 C 15.226562 -19.679688 15.25 -19.941406 15.25 -20.203125 L 15.25 -21.5 C 15.15625 -21.707031 15.007812 -21.820312 14.8125 -21.84375 C 14.625 -21.875 14.429688 -21.890625 14.234375 -21.890625 C 13.953125 -21.890625 13.703125 -21.835938 13.484375 -21.734375 C 13.273438 -21.640625 13.070312 -21.515625 12.875 -21.359375 C 12.6875 -21.203125 12.488281 -21.039062 12.28125 -20.875 C 12.070312 -20.707031 11.847656 -20.566406 11.609375 -20.453125 C 11.578125 -20.453125 11.539062 -20.441406 11.5 -20.421875 C 11.46875 -20.398438 11.429688 -20.382812 11.390625 -20.375 C 11.335938 -20.351562 11.300781 -20.332031 11.28125 -20.3125 C 11.1875 -20.21875 11.035156 -20.046875 10.828125 -19.796875 C 10.628906 -19.546875 10.414062 -19.269531 10.1875 -18.96875 C 9.957031 -18.675781 9.742188 -18.398438 9.546875 -18.140625 C 9.347656 -17.878906 9.210938 -17.6875 9.140625 -17.5625 C 9.140625 -17.519531 9.117188 -17.421875 9.078125 -17.265625 C 9.046875 -17.109375 9.019531 -17.019531 9 -17 C 8.851562 -16.820312 8.703125 -16.660156 8.546875 -16.515625 C 8.390625 -16.378906 8.234375 -16.234375 8.078125 -16.078125 C 7.929688 -15.921875 7.8125 -15.757812 7.71875 -15.59375 C 7.625 -15.425781 7.578125 -15.222656 7.578125 -14.984375 Z M 0.640625 -6.640625 L 0.640625 -6.921875 C 0.660156 -7.046875 0.679688 -7.28125 0.703125 -7.625 C 0.734375 -7.96875 0.765625 -8.332031 0.796875 -8.71875 C 0.835938 -9.113281 0.875 -9.484375 0.90625 -9.828125 C 0.945312 -10.171875 0.976562 -10.414062 1 -10.5625 C 1.019531 -10.59375 1.046875 -10.640625 1.078125 -10.703125 C 1.097656 -10.734375 1.117188 -10.765625 1.140625 -10.796875 C 1.160156 -10.828125 1.171875 -10.847656 1.171875 -10.859375 C 1.171875 -10.929688 1.191406 -11.070312 1.234375 -11.28125 C 1.285156 -11.488281 1.34375 -11.703125 1.40625 -11.921875 C 1.46875 -12.140625 1.523438 -12.347656 1.578125 -12.546875 C 1.640625 -12.742188 1.6875 -12.882812 1.71875 -12.96875 C 1.8125 -13.03125 1.90625 -13.15625 2 -13.34375 C 2.09375 -13.539062 2.179688 -13.757812 2.265625 -14 C 2.347656 -14.238281 2.425781 -14.472656 2.5 -14.703125 C 2.570312 -14.941406 2.632812 -15.125 2.6875 -15.25 C 2.726562 -15.289062 2.796875 -15.375 2.890625 -15.5 C 2.984375 -15.632812 3.039062 -15.726562 3.0625 -15.78125 C 3.707031 -16.582031 4.367188 -17.414062 5.046875 -18.28125 C 5.722656 -19.15625 6.445312 -19.941406 7.21875 -20.640625 C 7.332031 -20.710938 7.492188 -20.832031 7.703125 -21 C 7.921875 -21.164062 8.078125 -21.289062 8.171875 -21.375 C 8.191406 -21.375 8.289062 -21.414062 8.46875 -21.5 C 8.65625 -21.59375 8.769531 -21.660156 8.8125 -21.703125 C 8.84375 -21.722656 8.914062 -21.796875 9.03125 -21.921875 C 9.15625 -22.054688 9.285156 -22.191406 9.421875 -22.328125 C 9.566406 -22.460938 9.695312 -22.585938 9.8125 -22.703125 C 9.9375 -22.828125 10.019531 -22.898438 10.0625 -22.921875 C 10.09375 -22.941406 10.191406 -22.976562 10.359375 -23.03125 C 10.523438 -23.09375 10.707031 -23.148438 10.90625 -23.203125 C 11.101562 -23.253906 11.285156 -23.300781 11.453125 -23.34375 C 11.628906 -23.394531 11.75 -23.421875 11.8125 -23.421875 C 12.195312 -23.566406 12.582031 -23.722656 12.96875 -23.890625 C 13.363281 -24.054688 13.785156 -24.140625 14.234375 -24.140625 C 14.453125 -24.140625 14.75 -24.113281 15.125 -24.0625 C 15.507812 -24.007812 15.898438 -23.925781 16.296875 -23.8125 C 16.691406 -23.695312 17.054688 -23.566406 17.390625 -23.421875 C 17.722656 -23.273438 17.957031 -23.109375 18.09375 -22.921875 C 18.101562 -22.898438 18.128906 -22.835938 18.171875 -22.734375 C 18.222656 -22.640625 18.269531 -22.523438 18.3125 -22.390625 C 18.363281 -22.265625 18.410156 -22.144531 18.453125 -22.03125 C 18.503906 -21.925781 18.539062 -21.863281 18.5625 -21.84375 C 18.59375 -21.820312 18.6875 -21.742188 18.84375 -21.609375 C 19.007812 -21.484375 19.09375 -21.40625 19.09375 -21.375 C 19.238281 -21.019531 19.332031 -20.664062 19.375 -20.3125 C 19.425781 -19.957031 19.453125 -19.597656 19.453125 -19.234375 L 19.453125 -18.734375 C 19.390625 -18.640625 19.296875 -18.484375 19.171875 -18.265625 C 19.046875 -18.054688 18.910156 -17.832031 18.765625 -17.59375 C 18.628906 -17.363281 18.492188 -17.140625 18.359375 -16.921875 C 18.234375 -16.703125 18.144531 -16.554688 18.09375 -16.484375 C 17.789062 -16.054688 17.320312 -15.597656 16.6875 -15.109375 C 16.050781 -14.628906 15.351562 -14.191406 14.59375 -13.796875 C 13.84375 -13.398438 13.097656 -13.070312 12.359375 -12.8125 C 11.617188 -12.550781 11 -12.421875 10.5 -12.421875 C 10.476562 -12.421875 10.460938 -12.429688 10.453125 -12.453125 C 10.429688 -12.453125 10.414062 -12.453125 10.40625 -12.453125 C 10.394531 -12.460938 10.375 -12.46875 10.34375 -12.46875 C 10.34375 -12.46875 10.300781 -12.476562 10.21875 -12.5 C 10.132812 -12.519531 10.046875 -12.539062 9.953125 -12.5625 C 9.859375 -12.582031 9.765625 -12.597656 9.671875 -12.609375 C 9.578125 -12.628906 9.519531 -12.640625 9.5 -12.640625 L 9.359375 -12.640625 C 9.265625 -12.640625 9.101562 -12.628906 8.875 -12.609375 C 8.644531 -12.597656 8.398438 -12.582031 8.140625 -12.5625 C 7.878906 -12.539062 7.628906 -12.519531 7.390625 -12.5 C 7.148438 -12.476562 6.984375 -12.46875 6.890625 -12.46875 C 6.765625 -12.46875 6.660156 -12.421875 6.578125 -12.328125 C 6.503906 -12.242188 6.445312 -12.140625 6.40625 -12.015625 C 6.375 -11.898438 6.34375 -11.785156 6.3125 -11.671875 C 6.289062 -11.554688 6.269531 -11.484375 6.25 -11.453125 L 5.859375 -11.0625 C 5.503906 -10.519531 5.238281 -9.875 5.0625 -9.125 C 4.894531 -8.375 4.8125 -7.6875 4.8125 -7.0625 C 4.8125 -6.90625 4.828125 -6.660156 4.859375 -6.328125 C 4.898438 -5.992188 4.957031 -5.644531 5.03125 -5.28125 C 5.101562 -4.925781 5.191406 -4.59375 5.296875 -4.28125 C 5.398438 -3.976562 5.523438 -3.789062 5.671875 -3.71875 C 5.960938 -3.613281 6.351562 -3.503906 6.84375 -3.390625 C 7.332031 -3.273438 7.738281 -3.21875 8.0625 -3.21875 C 8.320312 -3.21875 8.578125 -3.3125 8.828125 -3.5 C 9.078125 -3.6875 9.300781 -3.828125 9.5 -3.921875 C 9.519531 -3.941406 9.582031 -3.96875 9.6875 -4 C 9.800781 -4.039062 9.921875 -4.078125 10.046875 -4.109375 C 10.179688 -4.148438 10.300781 -4.1875 10.40625 -4.21875 C 10.507812 -4.257812 10.570312 -4.289062 10.59375 -4.3125 C 10.738281 -4.382812 10.882812 -4.476562 11.03125 -4.59375 C 11.175781 -4.71875 11.320312 -4.832031 11.46875 -4.9375 C 11.625 -5.050781 11.78125 -5.148438 11.9375 -5.234375 C 12.09375 -5.316406 12.265625 -5.359375 12.453125 -5.359375 C 12.617188 -5.359375 12.726562 -5.296875 12.78125 -5.171875 C 12.832031 -5.054688 12.859375 -4.914062 12.859375 -4.75 C 12.859375 -4.726562 12.851562 -4.710938 12.84375 -4.703125 C 12.84375 -4.703125 12.84375 -4.691406 12.84375 -4.671875 L 12.84375 -4.609375 C 12.820312 -4.578125 12.773438 -4.519531 12.703125 -4.4375 C 12.628906 -4.351562 12.550781 -4.257812 12.46875 -4.15625 C 12.382812 -4.050781 12.304688 -3.957031 12.234375 -3.875 C 12.171875 -3.789062 12.128906 -3.738281 12.109375 -3.71875 C 11.847656 -3.332031 11.398438 -2.925781 10.765625 -2.5 C 10.128906 -2.070312 9.4375 -1.675781 8.6875 -1.3125 C 7.9375 -0.957031 7.191406 -0.660156 6.453125 -0.421875 C 5.722656 -0.191406 5.128906 -0.078125 4.671875 -0.078125 L 3.78125 -0.078125 C 3.738281 -0.078125 3.671875 -0.09375 3.578125 -0.125 C 3.492188 -0.164062 3.429688 -0.195312 3.390625 -0.21875 C 2.910156 -0.664062 2.519531 -1.070312 2.21875 -1.4375 C 1.925781 -1.8125 1.691406 -2.191406 1.515625 -2.578125 C 1.335938 -2.972656 1.195312 -3.398438 1.09375 -3.859375 C 0.988281 -4.328125 0.882812 -4.875 0.78125 -5.5 C 0.78125 -5.519531 0.769531 -5.566406 0.75 -5.640625 C 0.726562 -5.710938 0.710938 -5.800781 0.703125 -5.90625 C 0.691406 -6.007812 0.675781 -6.101562 0.65625 -6.1875 C 0.644531 -6.269531 0.640625 -6.316406 0.640625 -6.328125 Z M 0.640625 -6.640625 "/></g></g></g><g fill="#bdaab6" fill-opacity="1"><g transform="translate(118.096155, 107.47634)"><g><path d="M 2.109375 -1.828125 L 2.109375 -2.671875 C 2.109375 -2.679688 2.140625 -2.738281 2.203125 -2.84375 C 2.273438 -2.945312 2.328125 -3 2.359375 -3 L 2.359375 -3.71875 C 2.398438 -4.375 2.546875 -4.960938 2.796875 -5.484375 C 3.046875 -6.015625 3.289062 -6.585938 3.53125 -7.203125 C 3.5625 -7.285156 3.628906 -7.460938 3.734375 -7.734375 C 3.835938 -8.003906 3.890625 -8.175781 3.890625 -8.25 L 3.890625 -9.25 C 3.890625 -9.320312 3.96875 -9.421875 4.125 -9.546875 C 4.28125 -9.679688 4.378906 -9.769531 4.421875 -9.8125 C 4.515625 -9.9375 4.582031 -10.050781 4.625 -10.15625 C 4.675781 -10.257812 4.710938 -10.359375 4.734375 -10.453125 C 4.765625 -10.554688 4.796875 -10.664062 4.828125 -10.78125 C 4.867188 -10.894531 4.914062 -11.023438 4.96875 -11.171875 C 5.175781 -11.953125 5.359375 -12.742188 5.515625 -13.546875 C 5.671875 -14.347656 5.898438 -15.140625 6.203125 -15.921875 C 6.285156 -16.273438 6.390625 -16.613281 6.515625 -16.9375 C 6.640625 -17.257812 6.765625 -17.609375 6.890625 -17.984375 C 6.890625 -17.992188 6.929688 -18.109375 7.015625 -18.328125 C 7.097656 -18.554688 7.160156 -18.734375 7.203125 -18.859375 C 7.203125 -18.878906 7.226562 -18.9375 7.28125 -19.03125 C 7.332031 -19.125 7.359375 -19.191406 7.359375 -19.234375 L 7.359375 -19.421875 C 7.359375 -19.515625 7.351562 -19.625 7.34375 -19.75 C 7.332031 -19.882812 7.328125 -20.019531 7.328125 -20.15625 C 7.328125 -20.300781 7.320312 -20.425781 7.3125 -20.53125 C 7.3125 -20.644531 7.3125 -20.726562 7.3125 -20.78125 L 6.890625 -20.78125 C 6.867188 -20.78125 6.816406 -20.75 6.734375 -20.6875 C 6.648438 -20.625 6.550781 -20.546875 6.4375 -20.453125 C 6.332031 -20.359375 6.21875 -20.257812 6.09375 -20.15625 C 5.976562 -20.050781 5.882812 -19.960938 5.8125 -19.890625 C 5.769531 -19.859375 5.675781 -19.769531 5.53125 -19.625 C 5.382812 -19.488281 5.289062 -19.398438 5.25 -19.359375 C 5.226562 -19.359375 5.175781 -19.332031 5.09375 -19.28125 C 5.007812 -19.226562 4.914062 -19.171875 4.8125 -19.109375 C 4.71875 -19.054688 4.628906 -19 4.546875 -18.9375 C 4.460938 -18.882812 4.421875 -18.859375 4.421875 -18.859375 C 4.273438 -18.734375 4.132812 -18.585938 4 -18.421875 C 3.875 -18.253906 3.738281 -18.097656 3.59375 -17.953125 C 3.457031 -17.816406 3.300781 -17.695312 3.125 -17.59375 C 2.945312 -17.5 2.75 -17.453125 2.53125 -17.453125 C 2.25 -17.453125 2.082031 -17.566406 2.03125 -17.796875 C 1.988281 -18.023438 1.96875 -18.289062 1.96875 -18.59375 L 1.96875 -18.671875 C 1.988281 -18.742188 2.023438 -18.859375 2.078125 -19.015625 C 2.140625 -19.171875 2.195312 -19.332031 2.25 -19.5 C 2.300781 -19.664062 2.347656 -19.8125 2.390625 -19.9375 C 2.441406 -20.070312 2.476562 -20.160156 2.5 -20.203125 C 2.519531 -20.273438 2.550781 -20.367188 2.59375 -20.484375 C 2.644531 -20.609375 2.695312 -20.722656 2.75 -20.828125 C 2.800781 -20.941406 2.851562 -21.039062 2.90625 -21.125 C 2.96875 -21.207031 3.019531 -21.257812 3.0625 -21.28125 C 3.070312 -21.300781 3.117188 -21.347656 3.203125 -21.421875 C 3.285156 -21.492188 3.378906 -21.570312 3.484375 -21.65625 C 3.585938 -21.738281 3.679688 -21.8125 3.765625 -21.875 C 3.847656 -21.945312 3.890625 -21.984375 3.890625 -21.984375 C 3.929688 -22.015625 3.992188 -22.097656 4.078125 -22.234375 C 4.171875 -22.378906 4.238281 -22.46875 4.28125 -22.5 C 4.539062 -22.851562 4.851562 -23.160156 5.21875 -23.421875 C 5.59375 -23.679688 5.960938 -23.96875 6.328125 -24.28125 C 6.347656 -24.300781 6.425781 -24.378906 6.5625 -24.515625 C 6.707031 -24.660156 6.816406 -24.734375 6.890625 -24.734375 C 6.890625 -24.742188 6.941406 -24.757812 7.046875 -24.78125 C 7.148438 -24.800781 7.253906 -24.820312 7.359375 -24.84375 C 7.472656 -24.875 7.578125 -24.898438 7.671875 -24.921875 C 7.773438 -24.941406 7.835938 -24.960938 7.859375 -24.984375 C 7.921875 -24.984375 8.007812 -25 8.125 -25.03125 C 8.25 -25.070312 8.378906 -25.109375 8.515625 -25.140625 C 8.648438 -25.179688 8.773438 -25.21875 8.890625 -25.25 C 9.003906 -25.289062 9.078125 -25.3125 9.109375 -25.3125 C 9.148438 -25.3125 9.195312 -25.316406 9.25 -25.328125 C 9.3125 -25.335938 9.359375 -25.34375 9.390625 -25.34375 C 9.609375 -25.34375 9.78125 -25.285156 9.90625 -25.171875 C 10.03125 -25.054688 10.125 -24.914062 10.1875 -24.75 C 10.25 -24.582031 10.289062 -24.398438 10.3125 -24.203125 C 10.332031 -24.015625 10.34375 -23.847656 10.34375 -23.703125 C 10.34375 -23.160156 10.257812 -22.675781 10.09375 -22.25 C 9.9375 -21.832031 9.785156 -21.34375 9.640625 -20.78125 C 9.472656 -20.1875 9.351562 -19.570312 9.28125 -18.9375 C 9.207031 -18.3125 9.097656 -17.695312 8.953125 -17.09375 C 8.953125 -17.050781 8.925781 -16.96875 8.875 -16.84375 C 8.832031 -16.726562 8.8125 -16.648438 8.8125 -16.609375 C 8.664062 -16.296875 8.582031 -16.007812 8.5625 -15.75 C 8.539062 -15.488281 8.492188 -15.1875 8.421875 -14.84375 C 8.347656 -14.601562 8.242188 -14.34375 8.109375 -14.0625 C 7.984375 -13.78125 7.898438 -13.507812 7.859375 -13.25 C 7.859375 -13.195312 7.867188 -13.109375 7.890625 -12.984375 C 7.910156 -12.867188 7.925781 -12.738281 7.9375 -12.59375 C 7.945312 -12.457031 7.957031 -12.328125 7.96875 -12.203125 C 7.988281 -12.085938 8 -12.003906 8 -11.953125 C 8 -11.929688 8.007812 -11.910156 8.03125 -11.890625 C 8.050781 -11.867188 8.066406 -11.859375 8.078125 -11.859375 C 8.078125 -11.878906 8.097656 -11.96875 8.140625 -12.125 C 8.179688 -12.28125 8.207031 -12.378906 8.21875 -12.421875 C 8.238281 -12.441406 8.273438 -12.484375 8.328125 -12.546875 C 8.390625 -12.609375 8.453125 -12.675781 8.515625 -12.75 C 8.578125 -12.820312 8.632812 -12.890625 8.6875 -12.953125 C 8.75 -13.023438 8.789062 -13.0625 8.8125 -13.0625 C 9 -13.425781 9.132812 -13.785156 9.21875 -14.140625 C 9.300781 -14.492188 9.441406 -14.835938 9.640625 -15.171875 C 9.660156 -15.191406 9.703125 -15.25 9.765625 -15.34375 C 9.828125 -15.4375 9.898438 -15.523438 9.984375 -15.609375 C 10.066406 -15.703125 10.140625 -15.796875 10.203125 -15.890625 C 10.273438 -15.984375 10.320312 -16.039062 10.34375 -16.0625 C 10.351562 -16.09375 10.375 -16.160156 10.40625 -16.265625 C 10.445312 -16.367188 10.488281 -16.476562 10.53125 -16.59375 C 10.570312 -16.71875 10.609375 -16.828125 10.640625 -16.921875 C 10.679688 -17.015625 10.703125 -17.070312 10.703125 -17.09375 C 10.796875 -17.363281 10.96875 -17.632812 11.21875 -17.90625 C 11.476562 -18.175781 11.710938 -18.429688 11.921875 -18.671875 C 11.941406 -18.722656 12.007812 -18.828125 12.125 -18.984375 C 12.25 -19.148438 12.378906 -19.316406 12.515625 -19.484375 C 12.648438 -19.648438 12.773438 -19.804688 12.890625 -19.953125 C 13.003906 -20.097656 13.070312 -20.179688 13.09375 -20.203125 C 13.195312 -20.316406 13.378906 -20.507812 13.640625 -20.78125 C 13.898438 -21.0625 14.179688 -21.351562 14.484375 -21.65625 C 14.796875 -21.96875 15.082031 -22.25 15.34375 -22.5 C 15.601562 -22.757812 15.785156 -22.945312 15.890625 -23.0625 C 16.597656 -23.445312 17.367188 -23.8125 18.203125 -24.15625 C 19.035156 -24.5 19.84375 -24.773438 20.625 -24.984375 L 20.75 -24.984375 C 20.789062 -24.960938 20.863281 -24.921875 20.96875 -24.859375 C 21.070312 -24.804688 21.179688 -24.75 21.296875 -24.6875 C 21.421875 -24.625 21.53125 -24.5625 21.625 -24.5 C 21.726562 -24.445312 21.789062 -24.421875 21.8125 -24.421875 C 22.050781 -24.328125 22.265625 -24.25 22.453125 -24.1875 C 22.640625 -24.125 22.800781 -24.046875 22.9375 -23.953125 C 23.070312 -23.859375 23.191406 -23.726562 23.296875 -23.5625 C 23.398438 -23.394531 23.5 -23.15625 23.59375 -22.84375 L 23.59375 -22.640625 C 23.59375 -22.460938 23.554688 -22.226562 23.484375 -21.9375 C 23.421875 -21.644531 23.332031 -21.363281 23.21875 -21.09375 C 23.113281 -20.832031 22.972656 -20.597656 22.796875 -20.390625 C 22.617188 -20.191406 22.421875 -20.082031 22.203125 -20.0625 C 22.015625 -20.0625 21.804688 -20.070312 21.578125 -20.09375 C 21.347656 -20.125 21.113281 -20.175781 20.875 -20.25 C 20.644531 -20.332031 20.425781 -20.425781 20.21875 -20.53125 C 20.019531 -20.644531 19.863281 -20.773438 19.75 -20.921875 C 19.675781 -20.992188 19.625 -21.078125 19.59375 -21.171875 C 19.570312 -21.265625 19.546875 -21.363281 19.515625 -21.46875 C 19.492188 -21.570312 19.457031 -21.664062 19.40625 -21.75 C 19.363281 -21.832031 19.296875 -21.910156 19.203125 -21.984375 C 19.160156 -22.015625 19.109375 -22.054688 19.046875 -22.109375 C 18.984375 -22.171875 18.90625 -22.226562 18.8125 -22.28125 C 18.71875 -22.351562 18.613281 -22.425781 18.5 -22.5 L 18 -22.5 C 17.925781 -22.445312 17.804688 -22.335938 17.640625 -22.171875 C 17.472656 -22.003906 17.296875 -21.828125 17.109375 -21.640625 C 16.929688 -21.460938 16.757812 -21.289062 16.59375 -21.125 C 16.425781 -20.957031 16.304688 -20.84375 16.234375 -20.78125 C 15.984375 -20.519531 15.765625 -20.195312 15.578125 -19.8125 C 15.398438 -19.4375 15.207031 -19.117188 15 -18.859375 C 14.59375 -18.347656 14.191406 -17.8125 13.796875 -17.25 C 13.410156 -16.695312 13.0625 -16.125 12.75 -15.53125 C 12.644531 -15.25 12.570312 -14.960938 12.53125 -14.671875 C 12.488281 -14.378906 12.394531 -14.082031 12.25 -13.78125 C 11.976562 -13.28125 11.675781 -12.765625 11.34375 -12.234375 C 11.007812 -11.710938 10.71875 -11.179688 10.46875 -10.640625 C 10.300781 -10.285156 10.164062 -9.914062 10.0625 -9.53125 C 9.96875 -9.144531 9.828125 -8.765625 9.640625 -8.390625 C 9.210938 -7.578125 8.757812 -6.773438 8.28125 -5.984375 C 7.8125 -5.203125 7.394531 -4.375 7.03125 -3.5 C 7.007812 -3.46875 6.96875 -3.367188 6.90625 -3.203125 C 6.851562 -3.035156 6.789062 -2.847656 6.71875 -2.640625 C 6.644531 -2.429688 6.570312 -2.226562 6.5 -2.03125 C 6.425781 -1.84375 6.367188 -1.691406 6.328125 -1.578125 C 6.316406 -1.566406 6.300781 -1.523438 6.28125 -1.453125 C 6.257812 -1.390625 6.242188 -1.320312 6.234375 -1.25 C 6.222656 -1.175781 6.210938 -1.101562 6.203125 -1.03125 C 6.203125 -0.957031 6.203125 -0.910156 6.203125 -0.890625 C 6.160156 -0.867188 6.097656 -0.816406 6.015625 -0.734375 C 5.929688 -0.648438 5.835938 -0.5625 5.734375 -0.46875 C 5.628906 -0.375 5.53125 -0.285156 5.4375 -0.203125 C 5.351562 -0.117188 5.289062 -0.0703125 5.25 -0.0625 C 5.15625 0.0507812 5.082031 0.144531 5.03125 0.21875 C 4.988281 0.289062 4.941406 0.34375 4.890625 0.375 C 4.835938 0.414062 4.765625 0.441406 4.671875 0.453125 C 4.578125 0.460938 4.445312 0.46875 4.28125 0.46875 C 3.570312 0.46875 3.03125 0.253906 2.65625 -0.171875 C 2.289062 -0.609375 2.109375 -1.160156 2.109375 -1.828125 Z M 2.109375 -1.828125 "/></g></g></g><g fill="#bdaab6" fill-opacity="1"><g transform="translate(139.298309, 107.47634)"><g><path d="M 10.34375 -34.34375 C 10.25 -34.601562 10.125 -34.914062 9.96875 -35.28125 C 9.820312 -35.65625 9.75 -35.984375 9.75 -36.265625 L 9.75 -36.453125 C 9.988281 -37.066406 10.285156 -37.539062 10.640625 -37.875 C 10.992188 -38.207031 11.515625 -38.375 12.203125 -38.375 C 12.585938 -38.375 12.925781 -38.296875 13.21875 -38.140625 C 13.519531 -37.984375 13.765625 -37.769531 13.953125 -37.5 C 14.148438 -37.226562 14.296875 -36.925781 14.390625 -36.59375 C 14.484375 -36.257812 14.53125 -35.914062 14.53125 -35.5625 C 14.53125 -35.375 14.492188 -35.160156 14.421875 -34.921875 C 14.347656 -34.679688 14.242188 -34.453125 14.109375 -34.234375 C 13.984375 -34.023438 13.832031 -33.847656 13.65625 -33.703125 C 13.476562 -33.554688 13.289062 -33.484375 13.09375 -33.484375 C 12.570312 -33.484375 12.09375 -33.570312 11.65625 -33.75 C 11.21875 -33.925781 10.78125 -34.125 10.34375 -34.34375 Z M 0.0625 -1.03125 C 0.0625 -1.320312 0.0859375 -1.582031 0.140625 -1.8125 C 0.191406 -2.050781 0.265625 -2.273438 0.359375 -2.484375 C 0.453125 -2.703125 0.566406 -2.914062 0.703125 -3.125 C 0.847656 -3.34375 0.992188 -3.585938 1.140625 -3.859375 C 1.140625 -3.898438 1.175781 -4.03125 1.25 -4.25 C 1.320312 -4.46875 1.378906 -4.625 1.421875 -4.71875 C 1.429688 -4.757812 1.457031 -4.828125 1.5 -4.921875 C 1.539062 -5.023438 1.578125 -5.140625 1.609375 -5.265625 C 1.648438 -5.390625 1.679688 -5.5 1.703125 -5.59375 C 1.734375 -5.695312 1.757812 -5.757812 1.78125 -5.78125 C 1.800781 -5.8125 1.847656 -5.878906 1.921875 -5.984375 C 1.992188 -6.085938 2.070312 -6.191406 2.15625 -6.296875 C 2.238281 -6.410156 2.3125 -6.519531 2.375 -6.625 C 2.4375 -6.726562 2.46875 -6.789062 2.46875 -6.8125 C 2.46875 -6.84375 2.5 -6.925781 2.5625 -7.0625 C 2.632812 -7.207031 2.671875 -7.296875 2.671875 -7.328125 C 2.742188 -7.515625 2.847656 -7.710938 2.984375 -7.921875 C 3.128906 -8.140625 3.269531 -8.351562 3.40625 -8.5625 C 3.539062 -8.78125 3.664062 -8.992188 3.78125 -9.203125 C 3.894531 -9.421875 3.976562 -9.625 4.03125 -9.8125 C 4.195312 -10.289062 4.347656 -10.785156 4.484375 -11.296875 C 4.628906 -11.804688 4.828125 -12.300781 5.078125 -12.78125 C 5.097656 -12.800781 5.148438 -12.878906 5.234375 -13.015625 C 5.316406 -13.148438 5.410156 -13.289062 5.515625 -13.4375 C 5.617188 -13.59375 5.710938 -13.738281 5.796875 -13.875 C 5.878906 -14.019531 5.929688 -14.109375 5.953125 -14.140625 C 6.222656 -14.617188 6.425781 -15.125 6.5625 -15.65625 C 6.707031 -16.1875 6.921875 -16.664062 7.203125 -17.09375 C 7.273438 -17.21875 7.359375 -17.332031 7.453125 -17.4375 C 7.554688 -17.539062 7.65625 -17.644531 7.75 -17.75 C 7.84375 -17.863281 7.921875 -17.984375 7.984375 -18.109375 C 8.046875 -18.242188 8.078125 -18.40625 8.078125 -18.59375 C 8.078125 -18.789062 8.054688 -18.945312 8.015625 -19.0625 C 7.984375 -19.175781 7.867188 -19.234375 7.671875 -19.234375 C 7.460938 -19.234375 7.203125 -19.160156 6.890625 -19.015625 C 6.578125 -18.878906 6.257812 -18.710938 5.9375 -18.515625 C 5.625 -18.328125 5.320312 -18.128906 5.03125 -17.921875 C 4.75 -17.710938 4.535156 -17.554688 4.390625 -17.453125 C 4.179688 -17.285156 4.007812 -17.128906 3.875 -16.984375 C 3.738281 -16.847656 3.59375 -16.722656 3.4375 -16.609375 C 3.289062 -16.503906 3.128906 -16.414062 2.953125 -16.34375 C 2.773438 -16.28125 2.5625 -16.25 2.3125 -16.25 C 2.050781 -16.25 1.882812 -16.304688 1.8125 -16.421875 C 1.75 -16.535156 1.71875 -16.710938 1.71875 -16.953125 C 1.71875 -17.097656 1.726562 -17.210938 1.75 -17.296875 C 1.769531 -17.378906 1.84375 -17.476562 1.96875 -17.59375 C 2.007812 -17.625 2.070312 -17.6875 2.15625 -17.78125 C 2.238281 -17.875 2.296875 -17.941406 2.328125 -17.984375 L 2.671875 -18.171875 C 2.679688 -18.191406 2.726562 -18.242188 2.8125 -18.328125 C 2.90625 -18.410156 3 -18.5 3.09375 -18.59375 C 3.195312 -18.695312 3.289062 -18.785156 3.375 -18.859375 C 3.457031 -18.941406 3.5 -18.988281 3.5 -19 C 3.539062 -19.019531 3.628906 -19.050781 3.765625 -19.09375 C 3.898438 -19.144531 3.988281 -19.191406 4.03125 -19.234375 C 4.101562 -19.234375 4.175781 -19.253906 4.25 -19.296875 C 4.320312 -19.335938 4.367188 -19.359375 4.390625 -19.359375 C 4.441406 -19.378906 4.535156 -19.453125 4.671875 -19.578125 C 4.816406 -19.710938 4.96875 -19.847656 5.125 -19.984375 C 5.28125 -20.128906 5.421875 -20.257812 5.546875 -20.375 C 5.679688 -20.5 5.769531 -20.570312 5.8125 -20.59375 C 5.820312 -20.625 5.894531 -20.660156 6.03125 -20.703125 C 6.175781 -20.753906 6.269531 -20.78125 6.3125 -20.78125 C 6.34375 -20.78125 6.398438 -20.8125 6.484375 -20.875 C 6.566406 -20.945312 6.660156 -21.019531 6.765625 -21.09375 C 6.867188 -21.164062 6.960938 -21.234375 7.046875 -21.296875 C 7.128906 -21.359375 7.179688 -21.398438 7.203125 -21.421875 C 7.441406 -21.628906 7.675781 -21.769531 7.90625 -21.84375 C 8.132812 -21.914062 8.351562 -22.007812 8.5625 -22.125 C 8.664062 -22.195312 8.835938 -22.296875 9.078125 -22.421875 C 9.328125 -22.554688 9.578125 -22.691406 9.828125 -22.828125 C 10.085938 -22.960938 10.335938 -23.082031 10.578125 -23.1875 C 10.828125 -23.289062 11.003906 -23.34375 11.109375 -23.34375 C 11.578125 -23.34375 11.953125 -23.285156 12.234375 -23.171875 C 12.523438 -23.054688 12.75 -22.890625 12.90625 -22.671875 C 13.0625 -22.453125 13.164062 -22.179688 13.21875 -21.859375 C 13.28125 -21.546875 13.3125 -21.1875 13.3125 -20.78125 C 13.3125 -20.28125 13.273438 -19.875 13.203125 -19.5625 C 13.128906 -19.257812 13.023438 -18.984375 12.890625 -18.734375 C 12.765625 -18.484375 12.625 -18.222656 12.46875 -17.953125 C 12.320312 -17.691406 12.1875 -17.359375 12.0625 -16.953125 C 11.914062 -16.472656 11.742188 -16.082031 11.546875 -15.78125 C 11.347656 -15.488281 11.175781 -15.128906 11.03125 -14.703125 C 11.03125 -14.660156 11.019531 -14.585938 11 -14.484375 C 10.976562 -14.390625 10.957031 -14.28125 10.9375 -14.15625 C 10.925781 -14.03125 10.910156 -13.914062 10.890625 -13.8125 C 10.867188 -13.71875 10.851562 -13.660156 10.84375 -13.640625 C 10.632812 -12.953125 10.347656 -12.289062 9.984375 -11.65625 C 9.628906 -11.019531 9.273438 -10.40625 8.921875 -9.8125 C 8.898438 -9.738281 8.835938 -9.613281 8.734375 -9.4375 C 8.640625 -9.257812 8.582031 -9.148438 8.5625 -9.109375 C 8.207031 -8.273438 7.828125 -7.457031 7.421875 -6.65625 C 7.023438 -5.851562 6.65625 -5.035156 6.3125 -4.203125 C 6.269531 -4.179688 6.203125 -4.078125 6.109375 -3.890625 C 6.015625 -3.703125 5.960938 -3.570312 5.953125 -3.5 C 5.953125 -3.425781 5.972656 -3.269531 6.015625 -3.03125 C 6.054688 -2.789062 6.078125 -2.632812 6.078125 -2.5625 C 6.117188 -2.5625 6.210938 -2.535156 6.359375 -2.484375 C 6.503906 -2.441406 6.597656 -2.421875 6.640625 -2.421875 C 7.210938 -2.566406 7.738281 -2.769531 8.21875 -3.03125 C 8.707031 -3.289062 9.191406 -3.546875 9.671875 -3.796875 C 10.148438 -4.046875 10.644531 -4.257812 11.15625 -4.4375 C 11.664062 -4.625 12.242188 -4.71875 12.890625 -4.71875 L 12.953125 -4.71875 C 12.960938 -4.71875 12.988281 -4.671875 13.03125 -4.578125 C 13.070312 -4.492188 13.097656 -4.410156 13.109375 -4.328125 L 13.109375 -4.203125 C 13.078125 -4.117188 12.992188 -3.988281 12.859375 -3.8125 C 12.734375 -3.644531 12.648438 -3.539062 12.609375 -3.5 C 12.554688 -3.476562 12.453125 -3.414062 12.296875 -3.3125 C 12.140625 -3.21875 11.972656 -3.113281 11.796875 -3 C 11.617188 -2.882812 11.457031 -2.769531 11.3125 -2.65625 C 11.164062 -2.550781 11.070312 -2.472656 11.03125 -2.421875 C 10.988281 -2.359375 10.941406 -2.3125 10.890625 -2.28125 C 10.796875 -2.1875 10.734375 -2.140625 10.703125 -2.140625 C 10.679688 -2.117188 10.625 -2.097656 10.53125 -2.078125 C 10.4375 -2.066406 10.335938 -2.050781 10.234375 -2.03125 C 10.140625 -2.007812 10.046875 -1.992188 9.953125 -1.984375 C 9.859375 -1.972656 9.789062 -1.96875 9.75 -1.96875 C 9.625 -1.9375 9.539062 -1.90625 9.5 -1.875 C 9.46875 -1.84375 9.445312 -1.804688 9.4375 -1.765625 C 9.425781 -1.734375 9.398438 -1.691406 9.359375 -1.640625 C 9.328125 -1.585938 9.242188 -1.519531 9.109375 -1.4375 C 8.890625 -1.289062 8.6875 -1.175781 8.5 -1.09375 C 8.3125 -1.007812 8.117188 -0.929688 7.921875 -0.859375 C 7.734375 -0.785156 7.535156 -0.710938 7.328125 -0.640625 C 7.128906 -0.566406 6.898438 -0.472656 6.640625 -0.359375 C 5.992188 -0.0664062 5.304688 0.234375 4.578125 0.546875 C 3.859375 0.867188 3.109375 1.03125 2.328125 1.03125 C 1.660156 1.03125 1.113281 0.875 0.6875 0.5625 C 0.269531 0.257812 0.0625 -0.269531 0.0625 -1.03125 Z M 0.0625 -1.03125 "/></g></g></g><g fill="#bdaab6" fill-opacity="1"><g transform="translate(154.77616, 107.47634)"><g><path d="M -2.0625 -4.0625 C -2.0625 -4.351562 -2.050781 -4.609375 -2.03125 -4.828125 C -2.007812 -5.054688 -1.957031 -5.257812 -1.875 -5.4375 C -1.789062 -5.613281 -1.671875 -5.769531 -1.515625 -5.90625 C -1.359375 -6.039062 -1.128906 -6.175781 -0.828125 -6.3125 C -0.796875 -6.3125 -0.671875 -6.332031 -0.453125 -6.375 C -0.242188 -6.425781 -0.09375 -6.453125 0 -6.453125 L 0.140625 -6.453125 C 0.265625 -6.453125 0.4375 -6.398438 0.65625 -6.296875 C 0.882812 -6.191406 1.097656 -6.066406 1.296875 -5.921875 C 1.503906 -5.773438 1.691406 -5.609375 1.859375 -5.421875 C 2.023438 -5.234375 2.117188 -5.054688 2.140625 -4.890625 L 2.140625 -4.203125 C 2.191406 -3.804688 2.367188 -3.390625 2.671875 -2.953125 C 2.984375 -2.523438 3.28125 -2.179688 3.5625 -1.921875 C 3.632812 -1.847656 3.8125 -1.738281 4.09375 -1.59375 C 4.382812 -1.457031 4.601562 -1.390625 4.75 -1.390625 C 5.03125 -1.390625 5.253906 -1.4375 5.421875 -1.53125 C 5.585938 -1.625 5.722656 -1.734375 5.828125 -1.859375 C 5.941406 -1.992188 6.039062 -2.128906 6.125 -2.265625 C 6.207031 -2.398438 6.316406 -2.515625 6.453125 -2.609375 C 6.460938 -2.703125 6.484375 -2.859375 6.515625 -3.078125 C 6.554688 -3.304688 6.597656 -3.535156 6.640625 -3.765625 C 6.679688 -3.992188 6.71875 -4.210938 6.75 -4.421875 C 6.789062 -4.640625 6.8125 -4.796875 6.8125 -4.890625 L 6.8125 -5.03125 C 6.8125 -5.0625 6.800781 -5.132812 6.78125 -5.25 C 6.757812 -5.363281 6.742188 -5.476562 6.734375 -5.59375 C 6.722656 -5.71875 6.707031 -5.828125 6.6875 -5.921875 C 6.675781 -6.023438 6.671875 -6.085938 6.671875 -6.109375 L 6.671875 -7.671875 C 6.648438 -7.960938 6.539062 -8.21875 6.34375 -8.4375 C 6.15625 -8.664062 6.0625 -8.921875 6.0625 -9.203125 C 6.0625 -9.378906 6.101562 -9.550781 6.1875 -9.71875 C 6.269531 -9.882812 6.3125 -10.070312 6.3125 -10.28125 L 6.3125 -10.5 C 6.289062 -10.632812 6.273438 -10.835938 6.265625 -11.109375 C 6.253906 -11.390625 6.234375 -11.675781 6.203125 -11.96875 C 6.179688 -12.269531 6.144531 -12.550781 6.09375 -12.8125 C 6.050781 -13.082031 5.992188 -13.273438 5.921875 -13.390625 L 5.921875 -15.234375 C 5.921875 -16.046875 5.957031 -16.851562 6.03125 -17.65625 C 6.101562 -18.457031 6.242188 -19.25 6.453125 -20.03125 C 6.554688 -20.425781 6.734375 -20.78125 6.984375 -21.09375 C 7.234375 -21.40625 7.515625 -21.691406 7.828125 -21.953125 C 8.148438 -22.210938 8.476562 -22.457031 8.8125 -22.6875 C 9.144531 -22.914062 9.457031 -23.132812 9.75 -23.34375 C 9.914062 -23.445312 10.03125 -23.550781 10.09375 -23.65625 C 10.164062 -23.757812 10.300781 -23.820312 10.5 -23.84375 C 10.875 -23.9375 11.265625 -23.988281 11.671875 -24 C 12.078125 -24.019531 12.484375 -24.03125 12.890625 -24.03125 C 13.367188 -24.03125 13.820312 -23.925781 14.25 -23.71875 C 14.675781 -23.519531 15.046875 -23.242188 15.359375 -22.890625 C 15.679688 -22.546875 15.929688 -22.144531 16.109375 -21.6875 C 16.296875 -21.226562 16.390625 -20.75 16.390625 -20.25 L 16.390625 -19.5 C 16.191406 -19.226562 15.972656 -19.035156 15.734375 -18.921875 C 15.503906 -18.804688 15.207031 -18.75 14.84375 -18.75 C 14.445312 -18.75 14.140625 -18.828125 13.921875 -18.984375 C 13.703125 -19.148438 13.515625 -19.351562 13.359375 -19.59375 C 13.210938 -19.832031 13.082031 -20.082031 12.96875 -20.34375 C 12.863281 -20.613281 12.742188 -20.867188 12.609375 -21.109375 C 12.484375 -21.359375 12.320312 -21.5625 12.125 -21.71875 C 11.9375 -21.875 11.675781 -21.953125 11.34375 -21.953125 C 11.300781 -21.953125 11.21875 -21.941406 11.09375 -21.921875 C 10.976562 -21.898438 10.851562 -21.878906 10.71875 -21.859375 C 10.59375 -21.847656 10.472656 -21.832031 10.359375 -21.8125 C 10.253906 -21.789062 10.179688 -21.769531 10.140625 -21.75 C 10.046875 -21.625 9.953125 -21.445312 9.859375 -21.21875 C 9.765625 -21 9.6875 -20.773438 9.625 -20.546875 C 9.5625 -20.316406 9.507812 -20.082031 9.46875 -19.84375 C 9.4375 -19.613281 9.421875 -19.425781 9.421875 -19.28125 L 9.421875 -19.140625 C 9.453125 -18.941406 9.484375 -18.675781 9.515625 -18.34375 C 9.546875 -18.007812 9.5625 -17.820312 9.5625 -17.78125 C 9.5625 -17.75 9.613281 -17.65625 9.71875 -17.5 C 9.832031 -17.351562 9.910156 -17.265625 9.953125 -17.234375 C 10.046875 -17.023438 10.101562 -16.804688 10.125 -16.578125 C 10.15625 -16.347656 10.171875 -16.101562 10.171875 -15.84375 C 10.171875 -15.601562 10.164062 -15.367188 10.15625 -15.140625 C 10.144531 -14.921875 10.140625 -14.707031 10.140625 -14.5 L 10.140625 -14.28125 C 10.140625 -14.25 10.148438 -14.171875 10.171875 -14.046875 C 10.191406 -13.921875 10.203125 -13.789062 10.203125 -13.65625 C 10.210938 -13.53125 10.226562 -13.40625 10.25 -13.28125 C 10.269531 -13.164062 10.28125 -13.09375 10.28125 -13.0625 C 10.28125 -13.039062 10.28125 -12.914062 10.28125 -12.6875 C 10.28125 -12.457031 10.285156 -12.179688 10.296875 -11.859375 C 10.304688 -11.546875 10.3125 -11.226562 10.3125 -10.90625 C 10.3125 -10.582031 10.3125 -10.328125 10.3125 -10.140625 C 10.3125 -10.023438 10.3125 -9.820312 10.3125 -9.53125 C 10.3125 -9.25 10.304688 -8.953125 10.296875 -8.640625 C 10.285156 -8.328125 10.28125 -8.023438 10.28125 -7.734375 C 10.28125 -7.453125 10.28125 -7.253906 10.28125 -7.140625 C 10.226562 -7.046875 10.191406 -6.925781 10.171875 -6.78125 C 10.148438 -6.644531 10.125 -6.507812 10.09375 -6.375 C 10.070312 -6.238281 10.035156 -6.109375 9.984375 -5.984375 C 9.941406 -5.867188 9.863281 -5.789062 9.75 -5.75 C 9.75 -5.695312 9.742188 -5.601562 9.734375 -5.46875 C 9.722656 -5.34375 9.707031 -5.203125 9.6875 -5.046875 C 9.675781 -4.898438 9.65625 -4.757812 9.625 -4.625 C 9.601562 -4.488281 9.582031 -4.390625 9.5625 -4.328125 C 9.5625 -4.316406 9.546875 -4.273438 9.515625 -4.203125 C 9.484375 -4.140625 9.453125 -4.09375 9.421875 -4.0625 C 9.109375 -3.539062 8.84375 -3.085938 8.625 -2.703125 C 8.414062 -2.328125 8.1875 -1.992188 7.9375 -1.703125 C 7.6875 -1.421875 7.382812 -1.171875 7.03125 -0.953125 C 6.675781 -0.742188 6.203125 -0.546875 5.609375 -0.359375 C 5.535156 -0.335938 5.410156 -0.300781 5.234375 -0.25 C 5.054688 -0.207031 4.859375 -0.160156 4.640625 -0.109375 C 4.429688 -0.0546875 4.238281 -0.0078125 4.0625 0.03125 C 3.894531 0.0820312 3.773438 0.117188 3.703125 0.140625 L 3.5625 0.140625 C 3.300781 0.140625 3.070312 0.0976562 2.875 0.015625 C 2.675781 -0.0664062 2.476562 -0.144531 2.28125 -0.21875 C 2.257812 -0.21875 2.175781 -0.210938 2.03125 -0.203125 C 1.882812 -0.191406 1.753906 -0.1875 1.640625 -0.1875 C 1.503906 -0.1875 1.421875 -0.195312 1.390625 -0.21875 C 1.367188 -0.21875 1.289062 -0.257812 1.15625 -0.34375 C 1.03125 -0.425781 0.957031 -0.476562 0.9375 -0.5 C 0.90625 -0.550781 0.84375 -0.59375 0.75 -0.625 C 0.65625 -0.664062 0.59375 -0.6875 0.5625 -0.6875 C 0.28125 -0.800781 -0.0078125 -0.984375 -0.3125 -1.234375 C -0.625 -1.484375 -0.910156 -1.757812 -1.171875 -2.0625 C -1.429688 -2.375 -1.644531 -2.703125 -1.8125 -3.046875 C -1.976562 -3.390625 -2.0625 -3.726562 -2.0625 -4.0625 Z M -2.0625 -4.0625 "/></g></g></g></svg>