<svg xmlns="http://www.w3.org/2000/svg" xmlns:xlink="http://www.w3.org/1999/xlink" zoomAndPan="magnify" preserveAspectRatio="xMidYMid meet" version="1.0" viewBox="41.7 0 87.31 180.51"><defs><clipPath id="09d33b24d2"><path d="M 58 0 L 114 0 L 114 180.5 L 58 180.5 Z M 58 0 " clip-rule="nonzero"/></clipPath><clipPath id="37dba7780c"><path d="M 100 128 L 121 128 L 121 180.5 L 100 180.5 Z M 100 128 " clip-rule="nonzero"/></clipPath><clipPath id="696d6b246b"><path d="M 41.703125 45 L 73 45 L 73 144 L 41.703125 144 Z M 41.703125 45 " clip-rule="nonzero"/></clipPath></defs><g clip-path="url(#09d33b24d2)"><path fill="#3d1831" d="M 113.433594 29.011719 L 110.949219 42.515625 C 110.949219 42.515625 105.171875 45.8125 102.78125 45.429688 C 106.3125 46.421875 110.796875 44.078125 110.796875 44.078125 C 110.796875 44.078125 101.015625 59.796875 100.691406 68.21875 C 100.585938 70.949219 100.636719 72.972656 100.746094 74.460938 C 90.894531 82.457031 86.0625 92.5 85.40625 100.6875 C 88.566406 85.636719 100.949219 76.324219 100.949219 76.324219 C 101.1875 77.894531 101.625 79.847656 101.625 79.847656 C 101.625 79.847656 92.464844 86.8125 90.371094 95.238281 C 93.367188 87.890625 97.894531 83.988281 102.113281 80.886719 C 103.976562 88.355469 108.445312 99.84375 104.128906 109.78125 C 99.894531 119.519531 93.6875 120.199219 93.4375 120.222656 C 93.601562 120.273438 97.585938 121.378906 103.550781 114.128906 C 102.714844 118.492188 101.773438 124.027344 94.796875 128.730469 C 101.726562 124.238281 102.722656 122.757812 102.863281 122.445312 C 102.652344 123.074219 100.8125 127.90625 93.667969 131.109375 C 94.644531 130.707031 97.972656 129.714844 101.265625 133.203125 C 97.871094 132.039062 94.320312 132.898438 93.773438 133.769531 C 93.230469 134.640625 94.207031 137.507812 98.167969 135.550781 C 96.792969 137.464844 94.335938 138.347656 93.023438 137.074219 C 92.195312 139.882812 96.800781 144.148438 96.800781 144.148438 C 96.800781 144.148438 93.855469 143.484375 92.101562 140.476562 C 91.601562 142.9375 92.28125 145.054688 95.316406 147.511719 C 90.324219 147.742188 87.683594 138.492188 87.503906 137.84375 C 87.683594 138.765625 91.1875 155.824219 99.140625 163.515625 C 95.679688 168.640625 99.871094 178.8125 100.570312 180.507812 C 94.097656 170.617188 87.414062 155.265625 84.0625 137.324219 C 80.71875 119.382812 76.898438 101.558594 87.871094 69.445312 C 97.664062 38.652344 111.554688 30.789062 107.125 10.066406 C 107.265625 10.902344 109.386719 24.453125 101.125 36.632812 C 92.589844 49.199219 84.355469 70.941406 82.183594 81.507812 C 80.019531 92 74.371094 106.390625 83.960938 145.121094 C 84.042969 145.460938 84.054688 145.820312 83.988281 146.160156 C 83.917969 146.515625 83.765625 146.863281 83.535156 147.15625 C 82.957031 147.894531 81.851562 148.804688 79.75 149.414062 C 82.328125 147.980469 82.617188 146.796875 81.984375 146.902344 C 81.355469 147.007812 78.019531 149.773438 71.734375 145.523438 C 74.863281 146.433594 79.457031 146.875 80.253906 145.203125 C 81.042969 143.539062 72.414062 146.816406 63.992188 135.917969 C 63.992188 135.917969 72.082031 143.359375 78.300781 141.050781 C 79.921875 140.417969 78.6875 138.78125 76.550781 139.046875 C 74.90625 139.257812 72.640625 138.292969 72.640625 138.292969 C 71.5 137.746094 69.773438 136.589844 68.765625 134.839844 C 68.886719 135.03125 69.328125 135.226562 69.523438 135.347656 C 69.792969 135.519531 70.0625 135.683594 70.339844 135.835938 C 71.308594 136.363281 72.359375 136.722656 73.445312 136.933594 C 74.085938 137.054688 74.738281 137.132812 75.390625 137.152344 C 75.769531 137.164062 76.277344 137.128906 76.441406 136.726562 C 76.628906 136.277344 76.066406 135.742188 75.78125 135.464844 C 75.128906 134.835938 74.308594 134.375 73.484375 134.015625 C 70.6875 132.796875 66.480469 132.316406 64.609375 133.332031 C 65.472656 131.6875 70.117188 130.382812 73.617188 132.042969 C 73.78125 132.125 74.378906 132.253906 75.328125 132.867188 C 75.539062 133.003906 75.121094 132.523438 75.09375 132.484375 C 74.65625 131.960938 74.175781 131.515625 73.652344 131.125 C 71.253906 129.316406 68.324219 128.386719 65.84375 126.671875 C 63.824219 125.269531 62.109375 123.578125 60.679688 121.574219 C 59.597656 120.046875 58.65625 118.363281 58.335938 116.519531 C 59.519531 117.964844 60.753906 119.371094 62.023438 120.742188 C 63.761719 122.621094 65.921875 124.042969 68.46875 124.5625 C 68.683594 124.605469 69.542969 124.601562 69.675781 124.699219 C 68.796875 124.011719 67.847656 123.441406 67.050781 122.640625 C 65.804688 121.378906 64.71875 119.957031 63.859375 118.414062 C 63.425781 117.636719 63.054688 116.839844 62.746094 116.003906 C 62.460938 115.230469 62.078125 114.265625 62.058594 113.445312 C 63.199219 114.886719 64.46875 116.417969 66.121094 117.300781 C 66.578125 117.542969 67.710938 118.074219 68.070312 117.394531 C 68.144531 117.253906 68.140625 117.082031 68.109375 116.925781 C 67.835938 115.550781 62.6875 113.917969 61.1875 98.078125 C 63.609375 104.058594 65.648438 107.554688 66.351562 105.109375 C 67.050781 102.660156 60.75 92.902344 67.609375 79.6875 C 66.953125 92.28125 71.578125 96.125 71.75 93.394531 C 71.921875 90.652344 66.011719 80.230469 74.59375 64.378906 C 83.171875 48.527344 90.664062 45.28125 91.6875 33.429688 C 93.75 38.652344 93.777344 42.898438 93.777344 43.027344 C 93.832031 42.859375 94.703125 40.136719 93.050781 34.089844 C 95.644531 30.574219 101.152344 26.078125 100.753906 16.929688 C 102.84375 19.34375 103.304688 20.863281 103.390625 21.203125 C 103.304688 20.6875 102.742188 17.652344 101.300781 15.8125 C 104.53125 11.910156 105.191406 5.367188 103.0625 0 C 109.1875 8.894531 115.914062 15.511719 113.433594 29.015625 Z M 113.433594 29.011719 " fill-opacity="1" fill-rule="nonzero"/></g><g clip-path="url(#37dba7780c)"><path fill="#3d1831" d="M 100.570312 180.507812 C 100.570312 180.507812 138.738281 125.777344 103.054688 129.28125 C 121.960938 123.628906 122.179688 140.480469 119.550781 147.894531 C 116.921875 155.308594 108.914062 171.4375 100.570312 180.511719 Z M 100.570312 180.507812 " fill-opacity="1" fill-rule="nonzero"/></g><g clip-path="url(#696d6b246b)"><path fill="#3d1831" d="M 68.046875 143.316406 C 64.546875 144.621094 60.632812 143.398438 57.371094 141.902344 C 48.929688 137.878906 42.625 129.285156 42.023438 119.84375 C 41.738281 117.128906 42.199219 114.101562 42.617188 111.410156 C 42.765625 110.796875 43.25 108.527344 43.394531 107.992188 C 43.859375 106.5 44.347656 104.777344 44.972656 103.339844 C 49.785156 91.359375 59.53125 82.429688 65.5625 71.195312 C 68.085938 66.78125 70.34375 61.601562 70.0625 56.511719 C 69.175781 45.371094 59.289062 44.847656 52.441406 51.832031 C 48.605469 55.929688 46.484375 61.847656 47.414062 67.449219 C 47.835938 70.40625 49.375 73.460938 52.523438 74.179688 C 56 74.96875 59.710938 73.675781 62.828125 72.085938 C 57.8125 75.25 50.015625 77.230469 47.105469 70.371094 C 45.097656 65.550781 45.6875 59.9375 47.945312 55.300781 C 49.589844 51.878906 52.171875 48.828125 55.515625 46.949219 C 58.914062 45.007812 63.351562 44.136719 66.984375 46.183594 C 70.617188 48.25 72.277344 52.390625 72.613281 56.339844 C 72.921875 61.261719 71.390625 65.835938 69.3125 70.09375 C 64.875 79.097656 58.148438 86.988281 52.617188 95.089844 C 50.644531 98.058594 48.898438 101.144531 47.5625 104.394531 C 46.953125 105.726562 46.457031 107.339844 45.984375 108.722656 C 45.804688 109.363281 45.339844 111.289062 45.179688 111.917969 C 44.734375 114.390625 44.253906 117.199219 44.414062 119.707031 C 44.675781 128.535156 50.222656 136.695312 57.828125 141.046875 C 60.890625 142.726562 64.503906 144.230469 68.050781 143.320312 Z M 68.046875 143.316406 " fill-opacity="1" fill-rule="nonzero"/></g><path fill="#3d1831" d="M 107.417969 54.457031 C 115.664062 49.472656 127.503906 40.625 127.234375 30.027344 C 127.164062 27.398438 126.230469 24.847656 124.804688 22.589844 C 123.246094 20.257812 121.589844 17.898438 120.46875 15.285156 C 118.496094 11.082031 118.042969 5.441406 123.652344 4.125 C 125.066406 3.789062 126.511719 3.773438 127.902344 3.988281 C 120.621094 4.402344 118.828125 8.238281 122.019531 14.570312 C 123.222656 17.070312 124.832031 19.285156 126.375 21.609375 C 127.914062 24.085938 128.957031 26.980469 129.015625 29.972656 C 129.058594 41.441406 116.789062 50.097656 107.421875 54.457031 Z M 107.417969 54.457031 " fill-opacity="1" fill-rule="nonzero"/></svg>